<svg id="Layer_1" data-name="Layer 1" xmlns="http://www.w3.org/2000/svg" width="235.16" height="33.59" viewBox="0 0 235.16 33.59"><defs><style>.cls-1{fill:#00aeef;}</style></defs><title>crowdskout-logo</title><path class="cls-1" d="M58.58,24.75a13.1,13.1,0,0,1-4.31.69c-5.14,0-8.9-3.14-8.9-8.43,0-5.5,3.63-8.83,8.83-8.83a14,14,0,0,1,4.38.67v3.52l-.05,0a8.29,8.29,0,0,0-3.73-.84c-3.46,0-5.44,1.93-5.44,5.27s2,5.22,5.52,5.22a8.36,8.36,0,0,0,3.62-.74l.08.05Z"></path><path class="cls-1" d="M72.58,19a34.82,34.82,0,0,0,4.82,6v.12H73c-1.08-1-2-2.15-4.26-5.58H67.38v5.58H63.61V8.49c1.79-.12,3.12-.18,5.22-.18,3.48,0,6.89,1.28,6.89,5.49A5.24,5.24,0,0,1,72.58,19Zm-5.2-2.28h1.67A2.6,2.6,0,0,0,72,14.15c0-1.74-1-2.62-2.87-2.62-.7,0-1.27,0-1.7.07Z"></path><path class="cls-1" d="M88.86,25.45c-4.55,0-8.73-2.91-8.73-8.62,0-5.42,3.76-8.69,8.73-8.69,4.55,0,8.73,2.93,8.73,8.69,0,5.38-3.76,8.62-8.73,8.62Zm4.81-8.62c0-3.3-1.91-5.3-4.81-5.3s-4.81,2-4.81,5.3,1.91,5.23,4.81,5.23S93.68,20.09,93.68,16.83Z"></path><path class="cls-1" d="M124.35,8.53l-5.4,16.7h-2.84l-3.4-10-.23-.93-.25.93-3.4,10h-2.92l-5.62-16.7h4l3,10.23.24,1.26.3-1.25,3.29-10.09h2.77l3.29,9.71.36,1.54.34-1.54,2.81-9.85Z"></path><path class="cls-1" d="M134.52,8.32c5.79,0,9.15,3.22,9.15,8.34,0,5.48-3.64,8.5-9.49,8.5-3.16,0-5,0-5.78,0V8.56c1.49-.1,3.3-.23,6.13-.23Zm5.22,8.4c0-3.34-2.12-5-5.29-5a17.79,17.79,0,0,0-2.34.12v10c.71.05,1.29.07,2.47.06C138,21.84,139.74,20.08,139.74,16.72Z"></path><path class="cls-1" d="M152.82,25.43a10,10,0,0,1-5-1.11V20.9l.13-.07a7.3,7.3,0,0,0,4.4,1.46c1.61,0,2.47-.62,2.47-1.74s-.69-1.73-2.82-2.66S148,15.65,148,13c0-3.37,2.74-4.88,5.84-4.88a10.44,10.44,0,0,1,4.37.78v3.2l-.13.06a8.49,8.49,0,0,0-3.87-.88c-1.41,0-2.31.44-2.31,1.45s1,1.52,2.77,2.29c2,.87,4,2.28,4,5.31s-2.29,5.1-5.8,5.1Z"></path><path class="cls-1" d="M178.73,25.1l0,0h-4.61l-6.69-7.77v7.77h-3.73V8.53h3.73v8.1L174,8.53h4.27l0,0-6.82,8.13Z"></path><path class="cls-1" d="M189.1,25.45c-4.55,0-8.73-2.91-8.73-8.62,0-5.42,3.76-8.69,8.73-8.69,4.55,0,8.73,2.93,8.73,8.69,0,5.38-3.76,8.62-8.73,8.62Zm4.81-8.62c0-3.3-1.91-5.3-4.81-5.3s-4.81,2-4.81,5.3,1.91,5.23,4.81,5.23S193.92,20.09,193.92,16.83Z"></path><path class="cls-1" d="M209.81,25.47c-4.64,0-7.22-2.48-7.22-7v-10h3.73v9.52c0,2.84,1.21,4.24,3.53,4.24s3.53-1.43,3.53-4.24V8.53H217v10c0,4.42-2.65,7-7.2,7Z"></path><path class="cls-1" d="M235.16,11.9h-5.09V25.13h-3.73V11.9H221V8.53h14.12Z"></path><path class="cls-1" d="M16.8,33.59a16.8,16.8,0,1,1,16.8-16.8A16.82,16.82,0,0,1,16.8,33.59Zm0-30.32A13.52,13.52,0,1,0,30.32,16.8,13.54,13.54,0,0,0,16.8,3.27Z"></path><path class="cls-1" d="M16.75,7,8.91,24h16Zm0,6.1v8.46H12.63Z"></path></svg>
