<?xml version="1.0" standalone="yes"?>

<svg version="1.1" viewBox="0.0 0.0 573.0498687664042 313.2808398950131" fill="none" stroke="none" stroke-linecap="square" stroke-miterlimit="10" xmlns="http://www.w3.org/2000/svg" xmlns:xlink="http://www.w3.org/1999/xlink"><clipPath id="p.0"><path d="m0 0l573.04987 0l0 313.28085l-573.04987 0l0 -313.28085z" clip-rule="nonzero"></path></clipPath><g clip-path="url(#p.0)"><path fill="#000000" fill-opacity="0.0" d="m0 0l573.04987 0l0 313.28085l-573.04987 0z" fill-rule="evenodd"></path><path fill="#e7e7e7" d="m343.44095 24.958006l205.70078 0l0 106.89763l-205.70078 0z" fill-rule="evenodd"></path><path stroke="#666666" stroke-width="2.0" stroke-linejoin="round" stroke-linecap="butt" d="m343.44095 24.958006l205.70078 0l0 106.89763l-205.70078 0z" fill-rule="evenodd"></path><path fill="#000000" d="m398.7523 92.80682l-14.515625 0l0 -25.53125l14.515625 0l0 2.9375l-11.03125 0l0 7.90625l10.609375 0l0 2.921875l-10.609375 0l0 8.796875l11.03125 0l0 2.96875zm6.6796875 -19.609375l3.03125 0l0.140625 3.15625q0.859375 -1.015625 1.65625 -1.6875q0.796875 -0.671875 1.5625 -1.078125q0.78125 -0.40625 1.578125 -0.578125q0.796875 -0.171875 1.65625 -0.171875q3.03125 0 4.578125 1.796875q1.5625 1.78125 1.5625 5.375l0 12.796875l-3.40625 0l0 -12.515625q0 -2.3125 -0.859375 -3.40625q-0.859375 -1.109375 -2.546875 -1.109375q-0.625 0 -1.234375 0.1875q-0.59375 0.1875 -1.234375 0.640625q-0.640625 0.453125 -1.390625 1.234375q-0.75 0.78125 -1.6875 1.953125l0 13.015625l-3.40625 0l0 -19.609375zm36.117188 2.765625q0.546875 0.6875 0.84375 1.59375q0.3125 0.90625 0.3125 1.96875q0 1.515625 -0.5625 2.78125q-0.5625 1.265625 -1.578125 2.171875q-1.015625 0.890625 -2.4375 1.390625q-1.40625 0.484375 -3.109375 0.484375q-1.21875 0 -2.296875 -0.25q-1.078125 -0.265625 -1.703125 -0.65625q-0.375 0.546875 -0.625 1.03125q-0.25 0.484375 -0.25 1.09375q0 0.734375 0.703125 1.234375q0.71875 0.484375 1.890625 0.515625l5.15625 0.203125q1.46875 0.03125 2.703125 0.375q1.25 0.328125 2.125 0.953125q0.890625 0.625 1.390625 1.546875q0.5 0.921875 0.5 2.125q0 1.3125 -0.5625 2.484375q-0.5625 1.171875 -1.75 2.0625q-1.1875 0.890625 -3.0 1.40625q-1.8125 0.53125 -4.3125 0.53125q-2.390625 0 -4.0625 -0.390625q-1.65625 -0.375 -2.734375 -1.046875q-1.078125 -0.671875 -1.5625 -1.609375q-0.484375 -0.921875 -0.484375 -2.03125q0 -1.421875 0.65625 -2.5q0.671875 -1.078125 2.046875 -2.078125q-0.5 -0.234375 -0.875 -0.578125q-0.375 -0.359375 -0.609375 -0.765625q-0.234375 -0.421875 -0.359375 -0.890625q-0.109375 -0.46875 -0.109375 -0.921875q0 -1.265625 0.59375 -2.3125q0.609375 -1.0625 1.421875 -2.0q-0.375 -0.453125 -0.65625 -0.875q-0.28125 -0.4375 -0.484375 -0.9375q-0.203125 -0.5 -0.3125 -1.078125q-0.109375 -0.578125 -0.109375 -1.3125q0 -1.53125 0.546875 -2.78125q0.5625 -1.265625 1.5625 -2.15625q1.015625 -0.90625 2.421875 -1.40625q1.421875 -0.5 3.140625 -0.5q0.734375 0 1.390625 0.109375q0.671875 0.09375 1.171875 0.25l7.109375 0l0 2.765625l-3.140625 0zm-11.796875 19.671875q0 1.390625 1.4375 2.015625q1.453125 0.640625 4.03125 0.640625q1.625 0 2.71875 -0.296875q1.109375 -0.28125 1.78125 -0.765625q0.671875 -0.46875 0.96875 -1.09375q0.296875 -0.609375 0.296875 -1.25q0 -1.203125 -0.984375 -1.765625q-0.96875 -0.5625 -2.984375 -0.671875l-5.125 -0.171875q-0.640625 0.4375 -1.0625 0.84375q-0.421875 0.40625 -0.65625 0.828125q-0.234375 0.421875 -0.328125 0.84375q-0.09375 0.421875 -0.09375 0.84375zm1.03125 -16.03125q0 0.9375 0.3125 1.71875q0.3125 0.78125 0.875 1.328125q0.578125 0.546875 1.34375 0.859375q0.765625 0.296875 1.703125 0.296875q1.015625 0 1.8125 -0.34375q0.796875 -0.34375 1.328125 -0.921875q0.53125 -0.59375 0.8125 -1.359375q0.296875 -0.765625 0.296875 -1.578125q0 -0.9375 -0.3125 -1.71875q-0.3125 -0.78125 -0.890625 -1.328125q-0.5625 -0.546875 -1.34375 -0.84375q-0.765625 -0.3125 -1.703125 -0.3125q-1.015625 0 -1.8125 0.359375q-0.78125 0.34375 -1.328125 0.921875q-0.53125 0.578125 -0.8125 1.34375q-0.28125 0.75 -0.28125 1.578125zm25.320312 -3.59375l-5.8125 0l0 -2.8125l9.25 0l0 16.78125l5.828125 0l0 2.828125l-15.71875 0l0 -2.828125l6.453125 0l0 -13.96875zm1.1875 -11.03125q0.5625 0 1.046875 0.203125q0.5 0.203125 0.859375 0.578125q0.359375 0.359375 0.5625 0.84375q0.203125 0.484375 0.203125 1.046875q0 0.546875 -0.203125 1.03125q-0.203125 0.484375 -0.5625 0.859375q-0.359375 0.375 -0.859375 0.578125q-0.484375 0.203125 -1.046875 0.203125q-0.5625 0 -1.0625 -0.203125q-0.484375 -0.203125 -0.84375 -0.578125q-0.359375 -0.375 -0.5625 -0.859375q-0.203125 -0.484375 -0.203125 -1.03125q0 -0.5625 0.203125 -1.046875q0.203125 -0.484375 0.5625 -0.84375q0.359375 -0.375 0.84375 -0.578125q0.5 -0.203125 1.0625 -0.203125zm14.1171875 8.21875l3.03125 0l0.140625 3.15625q0.859375 -1.015625 1.65625 -1.6875q0.796875 -0.671875 1.5625 -1.078125q0.78125 -0.40625 1.578125 -0.578125q0.796875 -0.171875 1.65625 -0.171875q3.03125 0 4.578125 1.796875q1.5625 1.78125 1.5625 5.375l0 12.796875l-3.40625 0l0 -12.515625q0 -2.3125 -0.859375 -3.40625q-0.859375 -1.109375 -2.546875 -1.109375q-0.625 0 -1.234375 0.1875q-0.59375 0.1875 -1.234375 0.640625q-0.640625 0.453125 -1.390625 1.234375q-0.75 0.78125 -1.6875 1.953125l0 13.015625l-3.40625 0l0 -19.609375zm38.554688 8.765625q0 0.71875 -0.015625 1.21875q-0.015625 0.484375 -0.0625 0.90625l-13.765625 0q0 3.015625 1.671875 4.625q1.6875 1.609375 4.84375 1.609375q0.859375 0 1.71875 -0.0625q0.859375 -0.078125 1.65625 -0.1875q0.8125 -0.125 1.546875 -0.265625q0.734375 -0.140625 1.359375 -0.328125l0 2.796875q-1.390625 0.390625 -3.140625 0.640625q-1.75 0.25 -3.625 0.25q-2.515625 0 -4.34375 -0.6875q-1.8125 -0.6875 -2.96875 -1.984375q-1.15625 -1.296875 -1.71875 -3.1875q-0.5625 -1.890625 -0.5625 -4.265625q0 -2.078125 0.59375 -3.921875q0.609375 -1.84375 1.75 -3.234375q1.140625 -1.40625 2.796875 -2.21875q1.65625 -0.828125 3.765625 -0.828125q2.0625 0 3.640625 0.65625q1.578125 0.640625 2.65625 1.828125q1.09375 1.171875 1.640625 2.859375q0.5625 1.6875 0.5625 3.78125zm-3.53125 -0.484375q0.0625 -1.3125 -0.25 -2.390625q-0.3125 -1.09375 -0.96875 -1.875q-0.65625 -0.78125 -1.640625 -1.21875q-0.96875 -0.4375 -2.265625 -0.4375q-1.109375 0 -2.03125 0.4375q-0.90625 0.421875 -1.578125 1.203125q-0.65625 0.78125 -1.078125 1.875q-0.40625 1.09375 -0.5 2.40625l10.3125 0z" fill-rule="nonzero"></path><path fill="#e7e7e7" d="m22.716536 24.958006l248.72441 0l0 106.89763l-248.72441 0z" fill-rule="evenodd"></path><path stroke="#666666" stroke-width="2.0" stroke-linejoin="round" stroke-linecap="butt" d="m22.716536 24.958006l248.72441 0l0 106.89763l-248.72441 0z" fill-rule="evenodd"></path><path fill="#000000" d="m56.96155 85.1662q0 1.84375 -0.71875 3.265625q-0.703125 1.40625 -2.03125 2.390625q-1.3125 0.96875 -3.1875 1.484375q-1.859375 0.5 -4.140625 0.5l-6.671875 0l0 -25.53125l7.296875 0q8.53125 0 8.53125 6.21875q0 2.0625 -0.984375 3.546875q-0.984375 1.484375 -3.203125 2.203125q1.03125 0.203125 1.953125 0.671875q0.9375 0.46875 1.640625 1.21875q0.703125 0.734375 1.109375 1.75q0.40625 1.015625 0.40625 2.28125zm-4.53125 -11.203125q0 -0.78125 -0.234375 -1.46875q-0.234375 -0.703125 -0.828125 -1.203125q-0.578125 -0.5 -1.578125 -0.78125q-0.984375 -0.296875 -2.515625 -0.296875l-3.59375 0l0 7.984375l3.484375 0q1.1875 0 2.15625 -0.25q0.96875 -0.265625 1.65625 -0.78125q0.6875 -0.53125 1.0625 -1.3125q0.390625 -0.796875 0.390625 -1.890625zm0.84375 11.328125q0 -0.984375 -0.421875 -1.765625q-0.40625 -0.78125 -1.1875 -1.3125q-0.78125 -0.546875 -1.90625 -0.828125q-1.109375 -0.296875 -2.515625 -0.296875l-3.5625 0l0 8.78125l3.671875 0q2.984375 0 4.453125 -1.109375q1.46875 -1.109375 1.46875 -3.46875zm21.554691 7.515625l-0.078125 -2.640625q-1.59375 1.578125 -3.25 2.296875q-1.640625 0.703125 -3.46875 0.703125q-1.671875 0 -2.875 -0.4375q-1.1875038 -0.4375 -1.9531288 -1.1875q-0.765625 -0.75 -1.140625 -1.765625q-0.359375 -1.015625 -0.359375 -2.203125q0 -2.953125 2.203125 -4.625q2.2031288 -1.671875 6.500004 -1.671875l4.0625 0l0 -1.71875q0 -1.734375 -1.125 -2.78125q-1.109375 -1.046875 -3.390625 -1.046875q-1.65625 0 -3.28125 0.375q-1.609375 0.375 -3.3281288 1.0625l0 -3.078125q0.6562538 -0.234375 1.4375038 -0.453125q0.796875 -0.21875 1.671875 -0.390625q0.875 -0.1875 1.828125 -0.296875q0.96875 -0.109375 1.9375 -0.109375q1.78125 0 3.203125 0.390625q1.4375 0.390625 2.421875 1.203125q0.984375 0.796875 1.5 2.015625q0.53125 1.203125 0.53125 2.84375l0 13.515625l-3.046875 0zm-0.359375 -8.921875l-4.328125 0q-1.265625 0 -2.1875 0.25q-0.90625 0.25 -1.5 0.71875q-0.578125 0.46875 -0.875 1.125q-0.28125 0.65625 -0.28125 1.46875q0 0.578125 0.171875 1.09375q0.1875 0.515625 0.578125 0.921875q0.390625 0.390625 1.015625 0.625q0.625 0.234375 1.515625 0.234375q1.171875 0 2.6875 -0.703125q1.515625 -0.71875 3.203125 -2.265625l0 -3.46875zm25.289062 3.5625q0 1.046875 -0.359375 1.875q-0.34375 0.8125 -0.953125 1.453125q-0.609375 0.625 -1.40625 1.078125q-0.796875 0.4375 -1.703125 0.734375q-0.90625 0.296875 -1.875 0.4375q-0.953125 0.140625 -1.875 0.140625q-1.984375 0 -3.65625 -0.1875q-1.671875 -0.171875 -3.265625 -0.5625l0 -3.125q1.71875 0.484375 3.40625 0.75q1.703125 0.25 3.390625 0.25q2.4375 0 3.609375 -0.65625q1.171875 -0.671875 1.171875 -1.90625q0 -0.53125 -0.1875 -0.953125q-0.1875 -0.421875 -0.671875 -0.796875q-0.484375 -0.375 -1.515625 -0.78125q-1.03125 -0.421875 -2.796875 -0.953125q-1.328125 -0.390625 -2.453125 -0.875q-1.125 -0.5 -1.953125 -1.1875q-0.8125 -0.6875 -1.28125 -1.59375q-0.46875 -0.921875 -0.46875 -2.171875q0 -0.828125 0.375 -1.796875q0.390625 -0.984375 1.296875 -1.8125q0.921875 -0.84375 2.484375 -1.40625q1.5625 -0.5625 3.90625 -0.5625q1.15625 0 2.5625 0.140625q1.40625 0.125 2.921875 0.4375l0 3.015625q-1.59375 -0.390625 -3.03125 -0.5625q-1.4375 -0.1875 -2.484375 -0.1875q-1.28125 0 -2.15625 0.203125q-0.859375 0.1875 -1.40625 0.53125q-0.53125 0.328125 -0.765625 0.796875q-0.234375 0.453125 -0.234375 0.984375q0 0.53125 0.203125 0.96875q0.21875 0.421875 0.765625 0.828125q0.5625 0.390625 1.546875 0.796875q1.0 0.390625 2.609375 0.859375q1.734375 0.515625 2.921875 1.078125q1.203125 0.546875 1.9375 1.234375q0.75 0.671875 1.0625 1.53125q0.328125 0.859375 0.328125 1.953125zm23.023438 -5.484375q0 0.71875 -0.015625 1.21875q-0.015625 0.484375 -0.0625 0.90625l-13.765625 0q0 3.015625 1.671875 4.625q1.6875 1.609375 4.84375 1.609375q0.859375 0 1.71875 -0.0625q0.859375 -0.078125 1.65625 -0.1875q0.8125 -0.125 1.546875 -0.265625q0.734375 -0.140625 1.359375 -0.328125l0 2.796875q-1.390625 0.390625 -3.140625 0.640625q-1.75 0.25 -3.625 0.25q-2.515625 0 -4.34375 -0.6875q-1.8125 -0.6875 -2.96875 -1.984375q-1.15625 -1.296875 -1.71875 -3.1875q-0.5625 -1.890625 -0.5625 -4.265625q0 -2.078125 0.59375 -3.921875q0.609375 -1.84375 1.75 -3.234375q1.140625 -1.40625 2.796875 -2.21875q1.65625 -0.828125 3.765625 -0.828125q2.0625 0 3.640625 0.65625q1.578125 0.640625 2.65625 1.828125q1.09375 1.171875 1.640625 2.859375q0.5625 1.6875 0.5625 3.78125zm-3.53125 -0.484375q0.0625 -1.3125 -0.25 -2.390625q-0.3125 -1.09375 -0.96875 -1.875q-0.65625 -0.78125 -1.640625 -1.21875q-0.96875 -0.4375 -2.265625 -0.4375q-1.109375 0 -2.03125 0.4375q-0.90625 0.421875 -1.578125 1.203125q-0.65625 0.78125 -1.078125 1.875q-0.40625 1.09375 -0.5 2.40625l10.3125 0zm24.27343 11.328125l-14.515625 0l0 -25.53125l14.515625 0l0 2.9375l-11.03125 0l0 7.90625l10.609375 0l0 2.921875l-10.609375 0l0 8.796875l11.03125 0l0 2.96875zm6.6796875 -19.609375l3.0312653 0l0.140625 3.15625q0.859375 -1.015625 1.65625 -1.6875q0.796875 -0.671875 1.5625 -1.078125q0.78125 -0.40625 1.578125 -0.578125q0.796875 -0.171875 1.65625 -0.171875q3.03125 0 4.578125 1.796875q1.5625 1.78125 1.5625 5.375l0 12.796875l-3.40625 0l0 -12.515625q0 -2.3125 -0.859375 -3.40625q-0.859375 -1.109375 -2.546875 -1.109375q-0.625 0 -1.234375 0.1875q-0.59375 0.1875 -1.234375 0.640625q-0.640625 0.453125 -1.390625 1.234375q-0.75 0.78125 -1.6875 1.953125l0 13.015625l-3.4062653 0l0 -19.609375zm37.789078 19.328125q-1.140625 0.296875 -2.375 0.421875q-1.234375 0.140625 -2.5 0.140625q-3.6875 0 -5.515625 -1.671875q-1.8125 -1.671875 -1.8125 -5.140625l0 -10.234375l-5.484375 0l0 -2.84375l5.484375 0l0 -5.390625l3.40625 -0.875l0 6.265625l8.796875 0l0 2.84375l-8.796875 0l0 9.96875q0 2.109375 1.109375 3.15625q1.125 1.046875 3.3125 1.046875q0.9375 0 2.046875 -0.140625q1.125 -0.15625 2.328125 -0.46875l0 2.921875zm12.8828125 -16.515625l-5.8125 0l0 -2.8125l9.25 0l0 16.78125l5.828125 0l0 2.828125l-15.71875 0l0 -2.828125l6.453125 0l0 -13.96875zm1.1875 -11.03125q0.5625 0 1.046875 0.203125q0.5 0.203125 0.859375 0.578125q0.359375 0.359375 0.5625 0.84375q0.203125 0.484375 0.203125 1.046875q0 0.546875 -0.203125 1.03125q-0.203125 0.484375 -0.5625 0.859375q-0.359375 0.375 -0.859375 0.578125q-0.484375 0.203125 -1.046875 0.203125q-0.5625 0 -1.0625 -0.203125q-0.484375 -0.203125 -0.84375 -0.578125q-0.359375 -0.375 -0.5625 -0.859375q-0.203125 -0.484375 -0.203125 -1.03125q0 -0.5625 0.203125 -1.046875q0.203125 -0.484375 0.5625 -0.84375q0.359375 -0.375 0.84375 -0.578125q0.5 -0.203125 1.0625 -0.203125zm29.914062 27.546875q-1.140625 0.296875 -2.375 0.421875q-1.234375 0.140625 -2.5 0.140625q-3.6875 0 -5.515625 -1.671875q-1.8125 -1.671875 -1.8125 -5.140625l0 -10.234375l-5.484375 0l0 -2.84375l5.484375 0l0 -5.390625l3.40625 -0.875l0 6.265625l8.796875 0l0 2.84375l-8.796875 0l0 9.96875q0 2.109375 1.109375 3.15625q1.125 1.046875 3.3125 1.046875q0.9375 0 2.046875 -0.140625q1.125 -0.15625 2.328125 -0.46875l0 2.921875zm23.632812 -19.328125l-6.671875 17.53125q-1.03125 2.6875 -2.140625 4.609375q-1.109375 1.9375 -2.421875 3.171875q-1.296875 1.25 -2.859375 1.828125q-1.5625 0.59375 -3.5 0.59375q-0.5 0 -0.921875 -0.015625q-0.40625 -0.015625 -0.890625 -0.0625l0 -3.078125q0.421875 0.046875 0.921875 0.09375q0.515625 0.0625 1.09375 0.0625q0.9375 0 1.734375 -0.28125q0.8125 -0.265625 1.53125 -0.890625q0.734375 -0.609375 1.390625 -1.59375q0.671875 -0.96875 1.296875 -2.359375l-7.828125 -19.609375l3.859375 0l4.96875 12.96875l0.984375 3.046875l1.140625 -3.125l4.59375 -12.890625l3.71875 0z" fill-rule="nonzero"></path><path fill="#cccccc" d="m22.716536 131.85564l248.72441 0l0 50.740158l-248.72441 0z" fill-rule="evenodd"></path><path stroke="#666666" stroke-width="2.0" stroke-linejoin="round" stroke-linecap="butt" d="m22.716536 131.85564l248.72441 0l0 50.740158l-248.72441 0z" fill-rule="evenodd"></path><path fill="#000000" d="m43.654034 159.67197q0 1.5625 -0.453125 2.734375q-0.4375 1.171875 -1.21875 1.953125q-0.765625 0.765625 -1.828125 1.15625q-1.046875 0.390625 -2.265625 0.390625q-0.5625 0 -1.125 -0.0625q-0.5625 -0.046875 -1.125 -0.203125l0 4.9375l-2.046875 0l0 -16.578125l1.8125 0l0.140625 1.96875q0.875 -1.203125 1.859375 -1.6875q1.0 -0.5 2.171875 -0.5q1.0 0 1.765625 0.421875q0.765625 0.421875 1.28125 1.203125q0.515625 0.765625 0.765625 1.84375q0.265625 1.078125 0.265625 2.421875zm-2.09375 0.09375q0 -0.921875 -0.140625 -1.6875q-0.125 -0.78125 -0.421875 -1.328125q-0.296875 -0.5625 -0.75 -0.875q-0.453125 -0.3125 -1.09375 -0.3125q-0.375 0 -0.78125 0.125q-0.390625 0.125 -0.828125 0.421875q-0.421875 0.28125 -0.90625 0.765625q-0.46875 0.46875 -1.0 1.171875l0 5.703125q0.5625 0.234375 1.171875 0.375q0.625 0.125 1.21875 0.125q1.65625 0 2.59375 -1.109375q0.9375 -1.125 0.9375 -3.375zm15.4765625 0.015625q0 1.375 -0.390625 2.515625q-0.390625 1.140625 -1.125 1.96875q-0.71875 0.8125 -1.765625 1.265625q-1.03125 0.453125 -2.359375 0.453125q-1.265625 0 -2.265625 -0.390625q-1.0 -0.40625 -1.703125 -1.15625q-0.703125 -0.765625 -1.078125 -1.890625q-0.359375 -1.125 -0.359375 -2.59375q0 -1.375 0.390625 -2.5q0.390625 -1.140625 1.109375 -1.953125q0.734375 -0.8125 1.765625 -1.265625q1.046875 -0.453125 2.375 -0.453125q1.265625 0 2.265625 0.40625q1.0 0.390625 1.6875 1.140625q0.703125 0.75 1.078125 1.875q0.375 1.125 0.375 2.578125zm-2.09375 0.09375q0 -1.078125 -0.25 -1.890625q-0.234375 -0.828125 -0.6875 -1.359375q-0.4375 -0.546875 -1.078125 -0.828125q-0.625 -0.28125 -1.421875 -0.28125q-0.90625 0 -1.5625 0.359375q-0.640625 0.359375 -1.0625 0.96875q-0.421875 0.59375 -0.609375 1.390625q-0.1875 0.78125 -0.1875 1.640625q0 1.09375 0.234375 1.921875q0.234375 0.8125 0.671875 1.359375q0.453125 0.546875 1.078125 0.828125q0.640625 0.265625 1.4375 0.265625q0.921875 0 1.5625 -0.359375q0.65625 -0.359375 1.0625 -0.953125q0.421875 -0.59375 0.609375 -1.375q0.203125 -0.796875 0.203125 -1.6875zm14.351566 2.671875q0 0.625 -0.21875 1.125q-0.203125 0.484375 -0.5625 0.875q-0.359375 0.375 -0.84375 0.640625q-0.484375 0.265625 -1.03125 0.453125q-0.53125 0.171875 -1.109375 0.25q-0.578125 0.09375 -1.125 0.09375q-1.2031288 0 -2.2031288 -0.109375q-1.0 -0.109375 -1.953125 -0.34375l0 -1.875q1.03125 0.296875 2.046875 0.453125q1.015625 0.140625 2.0312538 0.140625q1.453125 0 2.15625 -0.390625q0.703125 -0.40625 0.703125 -1.140625q0 -0.3125 -0.109375 -0.5625q-0.109375 -0.265625 -0.40625 -0.484375q-0.28125 -0.234375 -0.90625 -0.46875q-0.609375 -0.25 -1.671875 -0.578125q-0.7968788 -0.234375 -1.4843788 -0.53125q-0.671875 -0.296875 -1.171875 -0.703125q-0.484375 -0.40625 -0.765625 -0.953125q-0.28125 -0.5625 -0.28125 -1.3125q0 -0.484375 0.234375 -1.0625q0.234375 -0.59375 0.78125 -1.09375q0.546875 -0.515625 1.484375 -0.84375q0.9375 -0.34375 2.3437538 -0.34375q0.6875 0 1.53125 0.078125q0.84375 0.078125 1.765625 0.265625l0 1.8125q-0.96875 -0.234375 -1.828125 -0.34375q-0.859375 -0.109375 -1.484375 -0.109375q-0.765625 0 -1.2968788 0.125q-0.515625 0.109375 -0.84375 0.3125q-0.3125 0.203125 -0.453125 0.484375q-0.140625 0.28125 -0.140625 0.59375q0 0.3125 0.125 0.578125q0.125 0.25 0.453125 0.5q0.328125 0.234375 0.921875 0.484375q0.6093788 0.234375 1.5625038 0.515625q1.046875 0.296875 1.765625 0.640625q0.71875 0.328125 1.15625 0.734375q0.453125 0.40625 0.640625 0.921875q0.1875 0.515625 0.1875 1.171875zm8.6015625 -8.765625q0.375 0 0.703125 0.15625q0.328125 0.140625 0.5625 0.390625q0.25 0.25 0.390625 0.578125q0.15625 0.328125 0.15625 0.6875q0 0.375 -0.15625 0.703125q-0.140625 0.3125 -0.390625 0.5625q-0.234375 0.25 -0.5625 0.390625q-0.328125 0.140625 -0.703125 0.140625q-0.375 0 -0.703125 -0.140625q-0.3125 -0.140625 -0.5625 -0.390625q-0.234375 -0.25 -0.375 -0.5625q-0.140625 -0.328125 -0.140625 -0.703125q0 -0.359375 0.140625 -0.6875q0.140625 -0.328125 0.375 -0.578125q0.25 -0.25 0.5625 -0.390625q0.328125 -0.15625 0.703125 -0.15625zm0 8.59375q0.375 0 0.703125 0.15625q0.328125 0.140625 0.5625 0.390625q0.25 0.234375 0.390625 0.5625q0.15625 0.328125 0.15625 0.703125q0 0.375 -0.15625 0.703125q-0.140625 0.3125 -0.390625 0.5625q-0.234375 0.234375 -0.5625 0.375q-0.328125 0.15625 -0.703125 0.15625q-0.375 0 -0.703125 -0.15625q-0.3125 -0.140625 -0.5625 -0.375q-0.234375 -0.25 -0.375 -0.5625q-0.140625 -0.328125 -0.140625 -0.703125q0 -0.375 0.140625 -0.703125q0.140625 -0.328125 0.375 -0.5625q0.25 -0.25 0.5625 -0.390625q0.328125 -0.15625 0.703125 -0.15625zm13.1953125 -8.59375q0.375 0 0.703125 0.15625q0.328125 0.140625 0.5625 0.390625q0.25 0.25 0.390625 0.578125q0.15625 0.328125 0.15625 0.6875q0 0.375 -0.15625 0.703125q-0.140625 0.3125 -0.390625 0.5625q-0.234375 0.25 -0.5625 0.390625q-0.328125 0.140625 -0.703125 0.140625q-0.375 0 -0.703125 -0.140625q-0.3125 -0.140625 -0.5625 -0.390625q-0.234375 -0.25 -0.375 -0.5625q-0.140625 -0.328125 -0.140625 -0.703125q0 -0.359375 0.140625 -0.6875q0.140625 -0.328125 0.375 -0.578125q0.25 -0.25 0.5625 -0.390625q0.328125 -0.15625 0.703125 -0.15625zm0 8.59375q0.375 0 0.703125 0.15625q0.328125 0.140625 0.5625 0.390625q0.25 0.234375 0.390625 0.5625q0.15625 0.328125 0.15625 0.703125q0 0.375 -0.15625 0.703125q-0.140625 0.3125 -0.390625 0.5625q-0.234375 0.234375 -0.5625 0.375q-0.328125 0.15625 -0.703125 0.15625q-0.375 0 -0.703125 -0.15625q-0.3125 -0.140625 -0.5625 -0.375q-0.234375 -0.25 -0.375 -0.5625q-0.140625 -0.328125 -0.140625 -0.703125q0 -0.375 0.140625 -0.703125q0.140625 -0.328125 0.375 -0.5625q0.25 -0.25 0.5625 -0.390625q0.328125 -0.15625 0.703125 -0.15625zm18.507812 -7.234375q0 0.9375 -0.359375 1.859375q-0.34375 0.90625 -1.078125 1.640625q-0.734375 0.71875 -1.890625 1.171875q-1.140625 0.453125 -2.734375 0.453125l-1.90625 0l0 5.5l-2.078125 0l0 -15.3125l4.3125 0q1.125 0 2.171875 0.25q1.046875 0.25 1.828125 0.8125q0.796875 0.5625 1.265625 1.453125q0.46875 0.890625 0.46875 2.171875zm-2.171875 0.09375q0 -1.484375 -0.96875 -2.265625q-0.953125 -0.78125 -2.6875 -0.78125l-2.140625 0l0 6.296875l1.953125 0q1.84375 0 2.84375 -0.796875q1.0 -0.8125 1.0 -2.453125zm15.5859375 4.546875q0 1.375 -0.390625 2.515625q-0.390625 1.140625 -1.125 1.96875q-0.71875 0.8125 -1.765625 1.265625q-1.03125 0.453125 -2.359375 0.453125q-1.265625 0 -2.265625 -0.390625q-1.0 -0.40625 -1.703125 -1.15625q-0.703125 -0.765625 -1.078125 -1.890625q-0.359375 -1.125 -0.359375 -2.59375q0 -1.375 0.390625 -2.5q0.390625 -1.140625 1.109375 -1.953125q0.734375 -0.8125 1.765625 -1.265625q1.046875 -0.453125 2.375 -0.453125q1.265625 0 2.265625 0.40625q1.0 0.390625 1.6875 1.140625q0.703125 0.75 1.078125 1.875q0.375 1.125 0.375 2.578125zm-2.09375 0.09375q0 -1.078125 -0.25 -1.890625q-0.234375 -0.828125 -0.6875 -1.359375q-0.4375 -0.546875 -1.078125 -0.828125q-0.625 -0.28125 -1.421875 -0.28125q-0.90625 0 -1.5625 0.359375q-0.640625 0.359375 -1.0625 0.96875q-0.421875 0.59375 -0.609375 1.390625q-0.1875 0.78125 -0.1875 1.640625q0 1.09375 0.234375 1.921875q0.234375 0.8125 0.671875 1.359375q0.453125 0.546875 1.078125 0.828125q0.640625 0.265625 1.4375 0.265625q0.921875 0 1.5625 -0.359375q0.65625 -0.359375 1.0625 -0.953125q0.421875 -0.59375 0.609375 -1.375q0.203125 -0.796875 0.203125 -1.6875zm9.0546875 -4.1875l-3.484375 0l0 -1.6875l5.546875 0l0 10.0625l3.5 0l0 1.703125l-9.4375 0l0 -1.703125l3.875 0l0 -8.375zm0.703125 -6.625q0.34375 0 0.640625 0.125q0.296875 0.125 0.5 0.34375q0.21875 0.21875 0.34375 0.515625q0.125 0.28125 0.125 0.625q0 0.328125 -0.125 0.625q-0.125 0.28125 -0.34375 0.515625q-0.203125 0.21875 -0.5 0.34375q-0.296875 0.125 -0.640625 0.125q-0.328125 0 -0.625 -0.125q-0.296875 -0.125 -0.515625 -0.34375q-0.21875 -0.234375 -0.34375 -0.515625q-0.109375 -0.296875 -0.109375 -0.625q0 -0.34375 0.109375 -0.625q0.125 -0.296875 0.34375 -0.515625q0.21875 -0.21875 0.515625 -0.34375q0.296875 -0.125 0.625 -0.125zm8.4765625 4.9375l1.8125 0l0.09375 1.890625q0.515625 -0.609375 0.984375 -1.0q0.484375 -0.40625 0.9375 -0.65625q0.46875 -0.25 0.953125 -0.34375q0.484375 -0.109375 1.0 -0.109375q1.8125 0 2.734375 1.078125q0.9375 1.078125 0.9375 3.234375l0 7.671875l-2.03125 0l0 -7.515625q0 -1.375 -0.515625 -2.03125q-0.515625 -0.671875 -1.53125 -0.671875q-0.375 0 -0.734375 0.109375q-0.359375 0.109375 -0.75 0.390625q-0.390625 0.265625 -0.84375 0.734375q-0.4375 0.46875 -1.0 1.171875l0 7.8125l-2.046875 0l0 -11.765625zm22.679688 11.59375q-0.6875 0.1875 -1.4375 0.265625q-0.734375 0.078125 -1.5 0.078125q-2.203125 0 -3.296875 -1.0q-1.09375 -1.015625 -1.09375 -3.09375l0 -6.140625l-3.296875 0l0 -1.703125l3.296875 0l0 -3.234375l2.046875 -0.53125l0 3.765625l5.28125 0l0 1.703125l-5.28125 0l0 5.984375q0 1.265625 0.671875 1.890625q0.671875 0.625 1.984375 0.625q0.5625 0 1.21875 -0.078125q0.671875 -0.09375 1.40625 -0.28125l0 1.75z" fill-rule="nonzero"></path><path fill="#cccccc" d="m22.716536 182.5958l248.72441 0l0 50.740158l-248.72441 0z" fill-rule="evenodd"></path><path stroke="#666666" stroke-width="2.0" stroke-linejoin="round" stroke-linecap="butt" d="m22.716536 182.5958l248.72441 0l0 50.740158l-248.72441 0z" fill-rule="evenodd"></path><path fill="#000000" d="m43.04466 216.50587l-2.03125 0l0 -7.515625q0 -1.359375 -0.515625 -2.03125q-0.5 -0.671875 -1.453125 -0.671875q-0.40625 0 -0.765625 0.109375q-0.359375 0.109375 -0.75 0.390625q-0.390625 0.265625 -0.84375 0.734375q-0.453125 0.46875 -1.046875 1.171875l0 7.8125l-2.046875 0l0 -16.5625l2.046875 0l0 4.796875l-0.078125 1.84375q0.484375 -0.5625 0.9375 -0.953125q0.46875 -0.40625 0.921875 -0.640625q0.46875 -0.25 0.953125 -0.359375q0.484375 -0.109375 1.0 -0.109375q1.75 0 2.703125 1.078125q0.96875 1.078125 0.96875 3.234375l0 7.671875zm13.6796875 -6.5q0 0.421875 -0.015625 0.71875q0 0.296875 -0.03125 0.546875l-8.265625 0q0 1.8125 1.0 2.78125q1.015625 0.96875 2.921875 0.96875q0.515625 0 1.03125 -0.046875q0.515625 -0.046875 0.984375 -0.109375q0.484375 -0.078125 0.921875 -0.15625q0.453125 -0.09375 0.828125 -0.203125l0 1.6875q-0.84375 0.234375 -1.890625 0.375q-1.046875 0.15625 -2.171875 0.15625q-1.515625 0 -2.609375 -0.40625q-1.078125 -0.421875 -1.78125 -1.203125q-0.6875 -0.78125 -1.03125 -1.90625q-0.328125 -1.140625 -0.328125 -2.5625q0 -1.25 0.359375 -2.34375q0.359375 -1.109375 1.03125 -1.953125q0.6875 -0.84375 1.6875 -1.328125q1.0 -0.5 2.265625 -0.5q1.234375 0 2.171875 0.390625q0.953125 0.390625 1.59375 1.109375q0.65625 0.703125 0.984375 1.71875q0.34375 1.0 0.34375 2.265625zm-2.125 -0.296875q0.046875 -0.78125 -0.140625 -1.4375q-0.1875 -0.65625 -0.59375 -1.125q-0.390625 -0.46875 -0.984375 -0.71875q-0.578125 -0.265625 -1.34375 -0.265625q-0.671875 0 -1.21875 0.265625q-0.546875 0.25 -0.953125 0.71875q-0.390625 0.46875 -0.640625 1.125q-0.25 0.65625 -0.3125 1.4375l6.1875 0zm12.945316 6.796875l-0.046875 -1.578125q-0.96875 0.9375 -1.953125 1.375q-0.984375 0.421875 -2.0781288 0.421875q-1.015625 0 -1.734375 -0.265625q-0.703125 -0.265625 -1.171875 -0.703125q-0.453125 -0.453125 -0.671875 -1.0625q-0.21875 -0.609375 -0.21875 -1.328125q0 -1.765625 1.3125 -2.765625q1.328125 -1.015625 3.9062538 -1.015625l2.4375 0l0 -1.03125q0 -1.03125 -0.671875 -1.65625q-0.671875 -0.640625 -2.046875 -0.640625q-0.9843788 0 -1.9531288 0.234375q-0.96875 0.21875 -2.0 0.625l0 -1.84375q0.390625 -0.140625 0.859375 -0.265625q0.46875 -0.140625 1.0 -0.234375q0.53125 -0.109375 1.09375 -0.171875q0.5781288 -0.078125 1.1718788 -0.078125q1.0625 0 1.921875 0.234375q0.859375 0.234375 1.4375 0.71875q0.59375 0.484375 0.90625 1.21875q0.328125 0.71875 0.328125 1.703125l0 8.109375l-1.828125 0zm-0.21875 -5.359375l-2.59375 0q-0.7656288 0 -1.3125038 0.15625q-0.546875 0.15625 -0.90625 0.4375q-0.34375 0.28125 -0.515625 0.671875q-0.171875 0.390625 -0.171875 0.875q0 0.34375 0.09375 0.65625q0.109375 0.3125 0.34375 0.5625q0.234375 0.234375 0.609375 0.375q0.375 0.140625 0.921875 0.140625q0.7031288 0 1.6093788 -0.421875q0.90625 -0.4375 1.921875 -1.359375l0 -2.09375zm5.2578125 -0.28125q0 -1.5 0.40625 -2.65625q0.40625 -1.171875 1.15625 -1.96875q0.765625 -0.8125 1.828125 -1.21875q1.0625 -0.421875 2.359375 -0.421875q0.5625 0 1.109375 0.078125q0.546875 0.0625 1.078125 0.21875l0 -4.953125l2.046875 0l0 16.5625l-1.828125 0l-0.078125 -2.234375q-0.84375 1.25 -1.84375 1.859375q-1.0 0.59375 -2.15625 0.59375q-1.015625 0 -1.78125 -0.421875q-0.765625 -0.4375 -1.28125 -1.203125q-0.5 -0.765625 -0.765625 -1.84375q-0.25 -1.078125 -0.25 -2.390625zm2.078125 -0.125q0 2.125 0.625 3.1875q0.640625 1.046875 1.78125 1.046875q0.78125 0 1.640625 -0.6875q0.859375 -0.703125 1.8125 -2.0625l0 -5.453125q-0.515625 -0.234375 -1.125 -0.359375q-0.609375 -0.125 -1.203125 -0.125q-1.65625 0 -2.59375 1.078125q-0.9375 1.078125 -0.9375 3.375zm15.7265625 -4.3125l-3.484375 0l0 -1.6875l5.546875 0l0 10.0625l3.5 0l0 1.703125l-9.4375 0l0 -1.703125l3.875 0l0 -8.375zm0.703125 -6.625q0.34375 0 0.640625 0.125q0.296875 0.125 0.5 0.34375q0.21875 0.21875 0.34375 0.515625q0.125 0.28125 0.125 0.625q0 0.328125 -0.125 0.625q-0.125 0.28125 -0.34375 0.515625q-0.203125 0.21875 -0.5 0.34375q-0.296875 0.125 -0.640625 0.125q-0.328125 0 -0.625 -0.125q-0.296875 -0.125 -0.515625 -0.34375q-0.21875 -0.234375 -0.34375 -0.515625q-0.109375 -0.296875 -0.109375 -0.625q0 -0.34375 0.109375 -0.625q0.125 -0.296875 0.34375 -0.515625q0.21875 -0.21875 0.515625 -0.34375q0.296875 -0.125 0.625 -0.125zm8.4765625 4.9375l1.8125 0l0.09375 1.890625q0.515625 -0.609375 0.984375 -1.0q0.484375 -0.40625 0.9375 -0.65625q0.46875 -0.25 0.953125 -0.34375q0.484375 -0.109375 1.0 -0.109375q1.8125 0 2.734375 1.078125q0.9375 1.078125 0.9375 3.234375l0 7.671875l-2.03125 0l0 -7.515625q0 -1.375 -0.515625 -2.03125q-0.515625 -0.671875 -1.53125 -0.671875q-0.375 0 -0.734375 0.109375q-0.359375 0.109375 -0.75 0.390625q-0.390625 0.265625 -0.84375 0.734375q-0.4375 0.46875 -1.0 1.171875l0 7.8125l-2.046875 0l0 -11.765625zm21.664062 1.65625q0.328125 0.421875 0.515625 0.96875q0.1875 0.53125 0.1875 1.171875q0 0.90625 -0.34375 1.671875q-0.328125 0.75 -0.9375 1.296875q-0.609375 0.53125 -1.46875 0.828125q-0.84375 0.296875 -1.859375 0.296875q-0.734375 0 -1.390625 -0.15625q-0.640625 -0.15625 -1.015625 -0.390625q-0.21875 0.328125 -0.375 0.625q-0.15625 0.296875 -0.15625 0.65625q0 0.4375 0.421875 0.734375q0.4375 0.296875 1.140625 0.3125l3.09375 0.125q0.875 0.015625 1.625 0.21875q0.75 0.203125 1.28125 0.578125q0.53125 0.375 0.828125 0.9375q0.296875 0.546875 0.296875 1.265625q0 0.78125 -0.34375 1.484375q-0.328125 0.703125 -1.046875 1.234375q-0.703125 0.546875 -1.796875 0.859375q-1.09375 0.3125 -2.59375 0.3125q-1.421875 0 -2.421875 -0.234375q-1.0 -0.21875 -1.65625 -0.625q-0.640625 -0.40625 -0.9375 -0.96875q-0.28125 -0.546875 -0.28125 -1.21875q0 -0.859375 0.390625 -1.5q0.40625 -0.640625 1.234375 -1.25q-0.3125 -0.140625 -0.53125 -0.34375q-0.21875 -0.21875 -0.359375 -0.46875q-0.140625 -0.25 -0.21875 -0.53125q-0.0625 -0.28125 -0.0625 -0.546875q0 -0.765625 0.359375 -1.390625q0.359375 -0.640625 0.84375 -1.203125q-0.21875 -0.265625 -0.390625 -0.515625q-0.171875 -0.265625 -0.296875 -0.5625q-0.125 -0.296875 -0.1875 -0.640625q-0.0625 -0.359375 -0.0625 -0.796875q0 -0.921875 0.328125 -1.671875q0.34375 -0.75 0.9375 -1.28125q0.609375 -0.546875 1.453125 -0.84375q0.859375 -0.3125 1.890625 -0.3125q0.4375 0 0.828125 0.0625q0.40625 0.0625 0.703125 0.15625l4.265625 0l0 1.65625l-1.890625 0zm-7.078125 11.8125q0 0.828125 0.859375 1.203125q0.875 0.390625 2.421875 0.390625q0.984375 0 1.640625 -0.1875q0.65625 -0.171875 1.0625 -0.453125q0.40625 -0.28125 0.578125 -0.65625q0.1875 -0.375 0.1875 -0.75q0 -0.71875 -0.59375 -1.0625q-0.578125 -0.34375 -1.796875 -0.40625l-3.0625 -0.09375q-0.390625 0.25 -0.640625 0.5q-0.25 0.25 -0.390625 0.5q-0.140625 0.25 -0.203125 0.5q-0.0625 0.25 -0.0625 0.515625zm0.625 -9.625q0 0.5625 0.1875 1.03125q0.1875 0.46875 0.53125 0.796875q0.34375 0.328125 0.796875 0.515625q0.46875 0.171875 1.03125 0.171875q0.609375 0 1.078125 -0.203125q0.484375 -0.203125 0.796875 -0.546875q0.328125 -0.359375 0.5 -0.8125q0.171875 -0.46875 0.171875 -0.953125q0 -0.5625 -0.1875 -1.03125q-0.1875 -0.46875 -0.53125 -0.796875q-0.34375 -0.328125 -0.8125 -0.5q-0.453125 -0.1875 -1.015625 -0.1875q-0.609375 0 -1.09375 0.21875q-0.46875 0.203125 -0.796875 0.546875q-0.3125 0.34375 -0.484375 0.796875q-0.171875 0.453125 -0.171875 0.953125zm15.8984375 -4.0625q0.375 0 0.703125 0.15625q0.328125 0.140625 0.5625 0.390625q0.25 0.25 0.390625 0.578125q0.15625 0.328125 0.15625 0.6875q0 0.375 -0.15625 0.703125q-0.140625 0.3125 -0.390625 0.5625q-0.234375 0.25 -0.5625 0.390625q-0.328125 0.140625 -0.703125 0.140625q-0.375 0 -0.703125 -0.140625q-0.3125 -0.140625 -0.5625 -0.390625q-0.234375 -0.25 -0.375 -0.5625q-0.140625 -0.328125 -0.140625 -0.703125q0 -0.359375 0.140625 -0.6875q0.140625 -0.328125 0.375 -0.578125q0.25 -0.25 0.5625 -0.390625q0.328125 -0.15625 0.703125 -0.15625zm0 8.59375q0.375 0 0.703125 0.15625q0.328125 0.140625 0.5625 0.390625q0.25 0.234375 0.390625 0.5625q0.15625 0.328125 0.15625 0.703125q0 0.375 -0.15625 0.703125q-0.140625 0.3125 -0.390625 0.5625q-0.234375 0.234375 -0.5625 0.375q-0.328125 0.15625 -0.703125 0.15625q-0.375 0 -0.703125 -0.15625q-0.3125 -0.140625 -0.5625 -0.375q-0.234375 -0.25 -0.375 -0.5625q-0.140625 -0.328125 -0.140625 -0.703125q0 -0.375 0.140625 -0.703125q0.140625 -0.328125 0.375 -0.5625q0.25 -0.25 0.5625 -0.390625q0.328125 -0.15625 0.703125 -0.15625zm13.1953125 -8.59375q0.375 0 0.703125 0.15625q0.328125 0.140625 0.5625 0.390625q0.25 0.25 0.390625 0.578125q0.15625 0.328125 0.15625 0.6875q0 0.375 -0.15625 0.703125q-0.140625 0.3125 -0.390625 0.5625q-0.234375 0.25 -0.5625 0.390625q-0.328125 0.140625 -0.703125 0.140625q-0.375 0 -0.703125 -0.140625q-0.3125 -0.140625 -0.5625 -0.390625q-0.234375 -0.25 -0.375 -0.5625q-0.140625 -0.328125 -0.140625 -0.703125q0 -0.359375 0.140625 -0.6875q0.140625 -0.328125 0.375 -0.578125q0.25 -0.25 0.5625 -0.390625q0.328125 -0.15625 0.703125 -0.15625zm0 8.59375q0.375 0 0.703125 0.15625q0.328125 0.140625 0.5625 0.390625q0.25 0.234375 0.390625 0.5625q0.15625 0.328125 0.15625 0.703125q0 0.375 -0.15625 0.703125q-0.140625 0.3125 -0.390625 0.5625q-0.234375 0.234375 -0.5625 0.375q-0.328125 0.15625 -0.703125 0.15625q-0.375 0 -0.703125 -0.15625q-0.3125 -0.140625 -0.5625 -0.375q-0.234375 -0.25 -0.375 -0.5625q-0.140625 -0.328125 -0.140625 -0.703125q0 -0.375 0.140625 -0.703125q0.140625 -0.328125 0.375 -0.5625q0.25 -0.25 0.5625 -0.390625q0.328125 -0.15625 0.703125 -0.15625zm19.757812 -11.921875l-5.203125 15.3125l-2.8125 0l-5.09375 -15.3125l2.359375 0l3.296875 10.3125l0.9375 3.03125l0.96875 -3.03125l3.3125 -10.3125l2.234375 0zm11.8515625 8.8125q0 0.421875 -0.015625 0.71875q0 0.296875 -0.03125 0.546875l-8.265625 0q0 1.8125 1.0 2.78125q1.015625 0.96875 2.921875 0.96875q0.515625 0 1.03125 -0.046875q0.515625 -0.046875 0.984375 -0.109375q0.484375 -0.078125 0.921875 -0.15625q0.453125 -0.09375 0.828125 -0.203125l0 1.6875q-0.84375 0.234375 -1.890625 0.375q-1.046875 0.15625 -2.171875 0.15625q-1.515625 0 -2.609375 -0.40625q-1.078125 -0.421875 -1.78125 -1.203125q-0.6875 -0.78125 -1.03125 -1.90625q-0.328125 -1.140625 -0.328125 -2.5625q0 -1.25 0.359375 -2.34375q0.359375 -1.109375 1.03125 -1.953125q0.6875 -0.84375 1.6875 -1.328125q1.0 -0.5 2.265625 -0.5q1.234375 0 2.171875 0.390625q0.953125 0.390625 1.59375 1.109375q0.65625 0.703125 0.984375 1.71875q0.34375 1.0 0.34375 2.265625zm-2.125 -0.296875q0.046875 -0.78125 -0.140625 -1.4375q-0.1875 -0.65625 -0.59375 -1.125q-0.390625 -0.46875 -0.984375 -0.71875q-0.578125 -0.265625 -1.34375 -0.265625q-0.671875 0 -1.21875 0.265625q-0.546875 0.25 -0.953125 0.71875q-0.390625 0.46875 -0.640625 1.125q-0.25 0.65625 -0.3125 1.4375l6.1875 0zm14.5234375 6.359375q-0.796875 0.3125 -1.640625 0.453125q-0.828125 0.15625 -1.71875 0.15625q-2.796875 0 -4.296875 -1.515625q-1.5 -1.515625 -1.5 -4.421875q0 -1.390625 0.421875 -2.53125q0.4375 -1.140625 1.21875 -1.9375q0.796875 -0.8125 1.875 -1.25q1.09375 -0.453125 2.40625 -0.453125q0.921875 0 1.71875 0.140625q0.796875 0.125 1.515625 0.421875l0 1.9375q-0.765625 -0.390625 -1.5625 -0.578125q-0.78125 -0.1875 -1.625 -0.1875q-0.78125 0 -1.484375 0.3125q-0.6875 0.296875 -1.21875 0.859375q-0.53125 0.5625 -0.84375 1.375q-0.296875 0.796875 -0.296875 1.8125q0 2.140625 1.03125 3.203125q1.046875 1.0625 2.890625 1.0625q0.828125 0 1.609375 -0.1875q0.78125 -0.1875 1.5 -0.5625l0 1.890625zm13.5390625 0.265625q-0.6875 0.1875 -1.4375 0.265625q-0.734375 0.078125 -1.5 0.078125q-2.203125 0 -3.296875 -1.0q-1.09375 -1.015625 -1.09375 -3.09375l0 -6.140625l-3.296875 0l0 -1.703125l3.296875 0l0 -3.234375l2.046875 -0.53125l0 3.765625l5.28125 0l0 1.703125l-5.28125 0l0 5.984375q0 1.265625 0.671875 1.890625q0.671875 0.625 1.984375 0.625q0.5625 0 1.21875 -0.078125q0.671875 -0.09375 1.40625 -0.28125l0 1.75zm13.9609375 -5.8125q0 1.375 -0.390625 2.515625q-0.390625 1.140625 -1.125 1.96875q-0.71875 0.8125 -1.765625 1.265625q-1.03125 0.453125 -2.359375 0.453125q-1.265625 0 -2.265625 -0.390625q-1.0 -0.40625 -1.703125 -1.15625q-0.703125 -0.765625 -1.078125 -1.890625q-0.359375 -1.125 -0.359375 -2.59375q0 -1.375 0.390625 -2.5q0.390625 -1.140625 1.109375 -1.953125q0.734375 -0.8125 1.765625 -1.265625q1.046875 -0.453125 2.375 -0.453125q1.265625 0 2.265625 0.40625q1.0 0.390625 1.6875 1.140625q0.703125 0.75 1.078125 1.875q0.375 1.125 0.375 2.578125zm-2.09375 0.09375q0 -1.078125 -0.25 -1.890625q-0.234375 -0.828125 -0.6875 -1.359375q-0.4375 -0.546875 -1.078125 -0.828125q-0.625 -0.28125 -1.421875 -0.28125q-0.90625 0 -1.5625 0.359375q-0.640625 0.359375 -1.0625 0.96875q-0.421875 0.59375 -0.609375 1.390625q-0.1875 0.78125 -0.1875 1.640625q0 1.09375 0.234375 1.921875q0.234375 0.8125 0.671875 1.359375q0.453125 0.546875 1.078125 0.828125q0.640625 0.265625 1.4375 0.265625q0.921875 0 1.5625 -0.359375q0.65625 -0.359375 1.0625 -0.953125q0.421875 -0.59375 0.609375 -1.375q0.203125 -0.796875 0.203125 -1.6875zm5.5234375 -5.875l1.859375 0l0.0625 2.171875q1.046875 -1.265625 2.046875 -1.828125q1.015625 -0.5625 2.046875 -0.5625q1.828125 0 2.765625 1.1875q0.953125 1.1875 0.890625 3.515625l-2.0625 0q0.03125 -1.546875 -0.453125 -2.234375q-0.484375 -0.703125 -1.421875 -0.703125q-0.421875 0 -0.84375 0.15625q-0.40625 0.140625 -0.84375 0.46875q-0.4375 0.3125 -0.9375 0.8125q-0.484375 0.5 -1.046875 1.21875l0 7.5625l-2.0625 0l0 -11.765625z" fill-rule="nonzero"></path><path fill="#000000" fill-opacity="0.0" d="m273.27036 45.737534l19.212585 0l0 16.913383l-19.212585 0z" fill-rule="evenodd"></path><path fill="#000000" d="m291.19223 63.77404l-0.640625 1.109375l-2.609375 -1.734375l0.21875 3.1875l-1.328125 0l0.203125 -3.1875l-2.65625 1.734375l-0.59375 -1.09375l2.859375 -1.390625l-2.859375 -1.4375l0.640625 -1.078125l2.625 1.75l-0.21875 -3.171875l1.328125 0l-0.234375 3.171875l2.625 -1.765625l0.65625 1.140625l-2.859375 1.40625l2.84375 1.359375z" fill-rule="nonzero"></path><path fill="#cccccc" d="m343.44095 131.85564l205.70078 0l0 50.740158l-205.70078 0z" fill-rule="evenodd"></path><path stroke="#666666" stroke-width="2.0" stroke-linejoin="round" stroke-linecap="butt" d="m343.44095 131.85564l205.70078 0l0 50.740158l-205.70078 0z" fill-rule="evenodd"></path><path fill="#000000" d="m364.25345 159.26572q0 0.421875 -0.015625 0.71875q0 0.296875 -0.03125 0.546875l-8.265625 0q0 1.8125 1.0 2.78125q1.015625 0.96875 2.921875 0.96875q0.515625 0 1.03125 -0.046875q0.515625 -0.046875 0.984375 -0.109375q0.484375 -0.078125 0.921875 -0.15625q0.453125 -0.09375 0.828125 -0.203125l0 1.6875q-0.84375 0.234375 -1.890625 0.375q-1.046875 0.15625 -2.171875 0.15625q-1.515625 0 -2.609375 -0.40625q-1.078125 -0.421875 -1.78125 -1.203125q-0.6875 -0.78125 -1.03125 -1.90625q-0.328125 -1.140625 -0.328125 -2.5625q0 -1.25 0.359375 -2.34375q0.359375 -1.109375 1.03125 -1.953125q0.6875 -0.84375 1.6875 -1.328125q1.0 -0.5 2.265625 -0.5q1.234375 0 2.171875 0.390625q0.953125 0.390625 1.59375 1.109375q0.65625 0.703125 0.984375 1.71875q0.34375 1.0 0.34375 2.265625zm-2.125 -0.296875q0.046875 -0.78125 -0.140625 -1.4375q-0.1875 -0.65625 -0.59375 -1.125q-0.390625 -0.46875 -0.984375 -0.71875q-0.578125 -0.265625 -1.34375 -0.265625q-0.671875 0 -1.21875 0.265625q-0.546875 0.25 -0.953125 0.71875q-0.390625 0.46875 -0.640625 1.125q-0.25 0.65625 -0.3125 1.4375l6.1875 0zm5.3828125 -4.96875l1.8125 0l0.09375 1.890625q0.515625 -0.609375 0.984375 -1.0q0.484375 -0.40625 0.9375 -0.65625q0.46875 -0.25 0.953125 -0.34375q0.484375 -0.109375 1.0 -0.109375q1.8125 0 2.734375 1.078125q0.9375 1.078125 0.9375 3.234375l0 7.671875l-2.03125 0l0 -7.515625q0 -1.375 -0.515625 -2.03125q-0.515625 -0.671875 -1.53125 -0.671875q-0.375 0 -0.734375 0.109375q-0.359375 0.109375 -0.75 0.390625q-0.390625 0.265625 -0.84375 0.734375q-0.4375 0.46875 -1.0 1.171875l0 7.8125l-2.046875 0l0 -11.765625zm22.679688 11.59375q-0.6875 0.1875 -1.4375 0.265625q-0.734375 0.078125 -1.5 0.078125q-2.203125 0 -3.296875 -1.0q-1.09375 -1.015625 -1.09375 -3.09375l0 -6.140625l-3.296875 0l0 -1.703125l3.296875 0l0 -3.234375l2.046875 -0.53125l0 3.765625l5.28125 0l0 1.703125l-5.28125 0l0 5.984375q0 1.265625 0.671875 1.890625q0.671875 0.625 1.984375 0.625q0.5625 0 1.21875 -0.078125q0.671875 -0.09375 1.40625 -0.28125l0 1.75zm7.7265625 -9.90625l-3.484375 0l0 -1.6875l5.546875 0l0 10.0625l3.5 0l0 1.703125l-9.4375 0l0 -1.703125l3.875 0l0 -8.375zm0.703125 -6.625q0.34375 0 0.640625 0.125q0.296875 0.125 0.5 0.34375q0.21875 0.21875 0.34375 0.515625q0.125 0.28125 0.125 0.625q0 0.328125 -0.125 0.625q-0.125 0.28125 -0.34375 0.515625q-0.203125 0.21875 -0.5 0.34375q-0.296875 0.125 -0.640625 0.125q-0.328125 0 -0.625 -0.125q-0.296875 -0.125 -0.515625 -0.34375q-0.21875 -0.234375 -0.34375 -0.515625q-0.109375 -0.296875 -0.109375 -0.625q0 -0.34375 0.109375 -0.625q0.125 -0.296875 0.34375 -0.515625q0.21875 -0.21875 0.515625 -0.34375q0.296875 -0.125 0.625 -0.125zm17.960938 16.53125q-0.6875 0.1875 -1.4375 0.265625q-0.734375 0.078125 -1.5 0.078125q-2.203125 0 -3.296875 -1.0q-1.09375 -1.015625 -1.09375 -3.09375l0 -6.140625l-3.296875 0l0 -1.703125l3.296875 0l0 -3.234375l2.046875 -0.53125l0 3.765625l5.28125 0l0 1.703125l-5.28125 0l0 5.984375q0 1.265625 0.671875 1.890625q0.671875 0.625 1.984375 0.625q0.5625 0 1.21875 -0.078125q0.671875 -0.09375 1.40625 -0.28125l0 1.75zm7.7265625 -9.90625l-3.484375 0l0 -1.6875l5.546875 0l0 10.0625l3.5 0l0 1.703125l-9.4375 0l0 -1.703125l3.875 0l0 -8.375zm0.703125 -6.625q0.34375 0 0.640625 0.125q0.296875 0.125 0.5 0.34375q0.21875 0.21875 0.34375 0.515625q0.125 0.28125 0.125 0.625q0 0.328125 -0.125 0.625q-0.125 0.28125 -0.34375 0.515625q-0.203125 0.21875 -0.5 0.34375q-0.296875 0.125 -0.640625 0.125q-0.328125 0 -0.625 -0.125q-0.296875 -0.125 -0.515625 -0.34375q-0.21875 -0.234375 -0.34375 -0.515625q-0.109375 -0.296875 -0.109375 -0.625q0 -0.34375 0.109375 -0.625q0.125 -0.296875 0.34375 -0.515625q0.21875 -0.21875 0.515625 -0.34375q0.296875 -0.125 0.625 -0.125zm18.414062 10.203125q0 0.421875 -0.015625 0.71875q0 0.296875 -0.03125 0.546875l-8.265625 0q0 1.8125 1.0 2.78125q1.015625 0.96875 2.921875 0.96875q0.515625 0 1.03125 -0.046875q0.515625 -0.046875 0.984375 -0.109375q0.484375 -0.078125 0.921875 -0.15625q0.453125 -0.09375 0.828125 -0.203125l0 1.6875q-0.84375 0.234375 -1.890625 0.375q-1.046875 0.15625 -2.171875 0.15625q-1.515625 0 -2.609375 -0.40625q-1.078125 -0.421875 -1.78125 -1.203125q-0.6875 -0.78125 -1.03125 -1.90625q-0.328125 -1.140625 -0.328125 -2.5625q0 -1.25 0.359375 -2.34375q0.359375 -1.109375 1.03125 -1.953125q0.6875 -0.84375 1.6875 -1.328125q1.0 -0.5 2.265625 -0.5q1.234375 0 2.171875 0.390625q0.953125 0.390625 1.59375 1.109375q0.65625 0.703125 0.984375 1.71875q0.34375 1.0 0.34375 2.265625zm-2.125 -0.296875q0.046875 -0.78125 -0.140625 -1.4375q-0.1875 -0.65625 -0.59375 -1.125q-0.390625 -0.46875 -0.984375 -0.71875q-0.578125 -0.265625 -1.34375 -0.265625q-0.671875 0 -1.21875 0.265625q-0.546875 0.25 -0.953125 0.71875q-0.390625 0.46875 -0.640625 1.125q-0.25 0.65625 -0.3125 1.4375l6.1875 0zm14.6953125 3.578125q0 0.625 -0.21875 1.125q-0.203125 0.484375 -0.5625 0.875q-0.359375 0.375 -0.84375 0.640625q-0.484375 0.265625 -1.03125 0.453125q-0.53125 0.171875 -1.109375 0.25q-0.578125 0.09375 -1.125 0.09375q-1.203125 0 -2.203125 -0.109375q-1.0 -0.109375 -1.953125 -0.34375l0 -1.875q1.03125 0.296875 2.046875 0.453125q1.015625 0.140625 2.03125 0.140625q1.453125 0 2.15625 -0.390625q0.703125 -0.40625 0.703125 -1.140625q0 -0.3125 -0.109375 -0.5625q-0.109375 -0.265625 -0.40625 -0.484375q-0.28125 -0.234375 -0.90625 -0.46875q-0.609375 -0.25 -1.671875 -0.578125q-0.796875 -0.234375 -1.484375 -0.53125q-0.671875 -0.296875 -1.171875 -0.703125q-0.484375 -0.40625 -0.765625 -0.953125q-0.28125 -0.5625 -0.28125 -1.3125q0 -0.484375 0.234375 -1.0625q0.234375 -0.59375 0.78125 -1.09375q0.546875 -0.515625 1.484375 -0.84375q0.9375 -0.34375 2.34375 -0.34375q0.6875 0 1.53125 0.078125q0.84375 0.078125 1.765625 0.265625l0 1.8125q-0.96875 -0.234375 -1.828125 -0.34375q-0.859375 -0.109375 -1.484375 -0.109375q-0.765625 0 -1.296875 0.125q-0.515625 0.109375 -0.84375 0.3125q-0.3125 0.203125 -0.453125 0.484375q-0.140625 0.28125 -0.140625 0.59375q0 0.3125 0.125 0.578125q0.125 0.25 0.453125 0.5q0.328125 0.234375 0.921875 0.484375q0.609375 0.234375 1.5625 0.515625q1.046875 0.296875 1.765625 0.640625q0.71875 0.328125 1.15625 0.734375q0.453125 0.40625 0.640625 0.921875q0.1875 0.515625 0.1875 1.171875zm8.6015625 -8.765625q0.375 0 0.703125 0.15625q0.328125 0.140625 0.5625 0.390625q0.25 0.25 0.390625 0.578125q0.15625 0.328125 0.15625 0.6875q0 0.375 -0.15625 0.703125q-0.140625 0.3125 -0.390625 0.5625q-0.234375 0.25 -0.5625 0.390625q-0.328125 0.140625 -0.703125 0.140625q-0.375 0 -0.703125 -0.140625q-0.3125 -0.140625 -0.5625 -0.390625q-0.234375 -0.25 -0.375 -0.5625q-0.140625 -0.328125 -0.140625 -0.703125q0 -0.359375 0.140625 -0.6875q0.140625 -0.328125 0.375 -0.578125q0.25 -0.25 0.5625 -0.390625q0.328125 -0.15625 0.703125 -0.15625zm0 8.59375q0.375 0 0.703125 0.15625q0.328125 0.140625 0.5625 0.390625q0.25 0.234375 0.390625 0.5625q0.15625 0.328125 0.15625 0.703125q0 0.375 -0.15625 0.703125q-0.140625 0.3125 -0.390625 0.5625q-0.234375 0.234375 -0.5625 0.375q-0.328125 0.15625 -0.703125 0.15625q-0.375 0 -0.703125 -0.15625q-0.3125 -0.140625 -0.5625 -0.375q-0.234375 -0.25 -0.375 -0.5625q-0.140625 -0.328125 -0.140625 -0.703125q0 -0.375 0.140625 -0.703125q0.140625 -0.328125 0.375 -0.5625q0.25 -0.25 0.5625 -0.390625q0.328125 -0.15625 0.703125 -0.15625zm13.1953125 -8.59375q0.375 0 0.703125 0.15625q0.328125 0.140625 0.5625 0.390625q0.25 0.25 0.390625 0.578125q0.15625 0.328125 0.15625 0.6875q0 0.375 -0.15625 0.703125q-0.140625 0.3125 -0.390625 0.5625q-0.234375 0.25 -0.5625 0.390625q-0.328125 0.140625 -0.703125 0.140625q-0.375 0 -0.703125 -0.140625q-0.3125 -0.140625 -0.5625 -0.390625q-0.234375 -0.25 -0.375 -0.5625q-0.140625 -0.328125 -0.140625 -0.703125q0 -0.359375 0.140625 -0.6875q0.140625 -0.328125 0.375 -0.578125q0.25 -0.25 0.5625 -0.390625q0.328125 -0.15625 0.703125 -0.15625zm0 8.59375q0.375 0 0.703125 0.15625q0.328125 0.140625 0.5625 0.390625q0.25 0.234375 0.390625 0.5625q0.15625 0.328125 0.15625 0.703125q0 0.375 -0.15625 0.703125q-0.140625 0.3125 -0.390625 0.5625q-0.234375 0.234375 -0.5625 0.375q-0.328125 0.15625 -0.703125 0.15625q-0.375 0 -0.703125 -0.15625q-0.3125 -0.140625 -0.5625 -0.375q-0.234375 -0.25 -0.375 -0.5625q-0.140625 -0.328125 -0.140625 -0.703125q0 -0.375 0.140625 -0.703125q0.140625 -0.328125 0.375 -0.5625q0.25 -0.25 0.5625 -0.390625q0.328125 -0.15625 0.703125 -0.15625zm16.429688 8.203125l-5.78125 0l0 -21.78125l5.78125 0l0 1.640625l-3.84375 0l0 18.5l3.84375 0l0 1.640625zm12.5234375 0l-5.78125 0l0 -1.640625l3.8125 0l0 -18.5l-3.8125 0l0 -1.640625l5.78125 0l0 21.78125z" fill-rule="nonzero"></path><path fill="#000000" fill-opacity="0.0" d="m343.44095 157.22572l-36.0 0l0 -78.83465l-36.0 0" fill-rule="evenodd"></path><path stroke="#000000" stroke-width="3.0" stroke-linejoin="round" stroke-linecap="butt" d="m343.44095 157.22572l-36.0 0l0 -78.83465l-25.71875 0" fill-rule="evenodd"></path><path fill="#000000" stroke="#000000" stroke-width="3.0" stroke-linecap="butt" d="m281.7222 78.391075l3.3737488 -3.3737488l-9.269287 3.3737488l9.269287 3.3737488z" fill-rule="evenodd"></path><path fill="#cccccc" d="m22.716536 233.33595l248.72441 0l0 50.740158l-248.72441 0z" fill-rule="evenodd"></path><path stroke="#666666" stroke-width="2.0" stroke-linejoin="round" stroke-linecap="butt" d="m22.716536 233.33595l248.72441 0l0 50.740158l-248.72441 0z" fill-rule="evenodd"></path><path fill="#000000" d="m42.904034 264.02728q0 0.625 -0.21875 1.125q-0.203125 0.484375 -0.5625 0.875q-0.359375 0.375 -0.84375 0.640625q-0.484375 0.265625 -1.03125 0.453125q-0.53125 0.171875 -1.109375 0.25q-0.578125 0.09375 -1.125 0.09375q-1.203125 0 -2.203125 -0.109375q-1.0 -0.109375 -1.953125 -0.34375l0 -1.875q1.03125 0.296875 2.046875 0.453125q1.015625 0.140625 2.03125 0.140625q1.453125 0 2.15625 -0.390625q0.703125 -0.40625 0.703125 -1.140625q0 -0.3125 -0.109375 -0.5625q-0.109375 -0.265625 -0.40625 -0.484375q-0.28125 -0.234375 -0.90625 -0.46875q-0.609375 -0.25 -1.671875 -0.578125q-0.796875 -0.234375 -1.484375 -0.53125q-0.671875 -0.296875 -1.171875 -0.703125q-0.484375 -0.40625 -0.765625 -0.953125q-0.28125 -0.5625 -0.28125 -1.3125q0 -0.484375 0.234375 -1.0625q0.234375 -0.59375 0.78125 -1.09375q0.546875 -0.515625 1.484375 -0.84375q0.9375 -0.34375 2.34375 -0.34375q0.6875 0 1.53125 0.078125q0.84375 0.078125 1.765625 0.265625l0 1.8125q-0.96875 -0.234375 -1.828125 -0.34375q-0.859375 -0.109375 -1.484375 -0.109375q-0.765625 0 -1.296875 0.125q-0.515625 0.109375 -0.84375 0.3125q-0.3125 0.203125 -0.453125 0.484375q-0.140625 0.28125 -0.140625 0.59375q0 0.3125 0.125 0.578125q0.125 0.25 0.453125 0.5q0.328125 0.234375 0.921875 0.484375q0.609375 0.234375 1.5625 0.515625q1.046875 0.296875 1.765625 0.640625q0.71875 0.328125 1.15625 0.734375q0.453125 0.40625 0.640625 0.921875q0.1875 0.515625 0.1875 1.171875zm13.9453125 -2.875q0 1.5625 -0.453125 2.734375q-0.4375 1.171875 -1.21875 1.953125q-0.765625 0.765625 -1.828125 1.15625q-1.046875 0.390625 -2.265625 0.390625q-0.5625 0 -1.125 -0.0625q-0.5625 -0.046875 -1.125 -0.203125l0 4.9375l-2.046875 0l0 -16.578125l1.8125 0l0.140625 1.96875q0.875 -1.203125 1.859375 -1.6875q1.0 -0.5 2.171875 -0.5q1.0 0 1.765625 0.421875q0.765625 0.421875 1.28125 1.203125q0.515625 0.765625 0.765625 1.84375q0.265625 1.078125 0.265625 2.421875zm-2.09375 0.09375q0 -0.921875 -0.140625 -1.6875q-0.125 -0.78125 -0.421875 -1.328125q-0.296875 -0.5625 -0.75 -0.875q-0.453125 -0.3125 -1.09375 -0.3125q-0.375 0 -0.78125 0.125q-0.390625 0.125 -0.828125 0.421875q-0.421875 0.28125 -0.90625 0.765625q-0.46875 0.46875 -1.0 1.171875l0 5.703125q0.5625 0.234375 1.171875 0.375q0.625 0.125 1.21875 0.125q1.65625 0 2.59375 -1.109375q0.9375 -1.125 0.9375 -3.375zm15.164066 -0.5q0 0.421875 -0.015625 0.71875q0 0.296875 -0.03125 0.546875l-8.265629 0q0 1.8125 1.0 2.78125q1.015625 0.96875 2.9218788 0.96875q0.515625 0 1.03125 -0.046875q0.515625 -0.046875 0.984375 -0.109375q0.484375 -0.078125 0.921875 -0.15625q0.453125 -0.09375 0.828125 -0.203125l0 1.6875q-0.84375 0.234375 -1.890625 0.375q-1.046875 0.15625 -2.171875 0.15625q-1.5156288 0 -2.6093788 -0.40625q-1.078125 -0.421875 -1.78125 -1.203125q-0.6875 -0.78125 -1.03125 -1.90625q-0.328125 -1.140625 -0.328125 -2.5625q0 -1.25 0.359375 -2.34375q0.359375 -1.109375 1.03125 -1.953125q0.6875 -0.84375 1.6875 -1.328125q1.0 -0.5 2.2656288 -0.5q1.234375 0 2.171875 0.390625q0.953125 0.390625 1.59375 1.109375q0.65625 0.703125 0.984375 1.71875q0.34375 1.0 0.34375 2.265625zm-2.125 -0.296875q0.046875 -0.78125 -0.140625 -1.4375q-0.1875 -0.65625 -0.59375 -1.125q-0.390625 -0.46875 -0.984375 -0.71875q-0.578125 -0.265625 -1.34375 -0.265625q-0.671875 0 -1.2187538 0.265625q-0.546875 0.25 -0.953125 0.71875q-0.390625 0.46875 -0.640625 1.125q-0.25 0.65625 -0.3125 1.4375l6.187504 0zm15.3203125 0.296875q0 0.421875 -0.015625 0.71875q0 0.296875 -0.03125 0.546875l-8.265625 0q0 1.8125 1.0 2.78125q1.015625 0.96875 2.921875 0.96875q0.515625 0 1.03125 -0.046875q0.515625 -0.046875 0.984375 -0.109375q0.484375 -0.078125 0.921875 -0.15625q0.453125 -0.09375 0.828125 -0.203125l0 1.6875q-0.84375 0.234375 -1.890625 0.375q-1.046875 0.15625 -2.171875 0.15625q-1.515625 0 -2.609375 -0.40625q-1.078125 -0.421875 -1.78125 -1.203125q-0.6875 -0.78125 -1.03125 -1.90625q-0.328125 -1.140625 -0.328125 -2.5625q0 -1.25 0.359375 -2.34375q0.359375 -1.109375 1.03125 -1.953125q0.6875 -0.84375 1.6875 -1.328125q1.0 -0.5 2.265625 -0.5q1.234375 0 2.171875 0.390625q0.953125 0.390625 1.59375 1.109375q0.65625 0.703125 0.984375 1.71875q0.34375 1.0 0.34375 2.265625zm-2.125 -0.296875q0.046875 -0.78125 -0.140625 -1.4375q-0.1875 -0.65625 -0.59375 -1.125q-0.390625 -0.46875 -0.984375 -0.71875q-0.578125 -0.265625 -1.34375 -0.265625q-0.671875 0 -1.21875 0.265625q-0.546875 0.25 -0.953125 0.71875q-0.390625 0.46875 -0.640625 1.125q-0.25 0.65625 -0.3125 1.4375l6.1875 0zm4.7890625 1.15625q0 -1.5 0.40625 -2.65625q0.40625 -1.171875 1.15625 -1.96875q0.765625 -0.8125 1.828125 -1.21875q1.0625 -0.421875 2.359375 -0.421875q0.5625 0 1.109375 0.078125q0.546875 0.0625 1.078125 0.21875l0 -4.953125l2.046875 0l0 16.5625l-1.828125 0l-0.078125 -2.234375q-0.84375 1.25 -1.84375 1.859375q-1.0 0.59375 -2.15625 0.59375q-1.015625 0 -1.78125 -0.421875q-0.765625 -0.4375 -1.28125 -1.203125q-0.5 -0.765625 -0.765625 -1.84375q-0.25 -1.078125 -0.25 -2.390625zm2.078125 -0.125q0 2.125 0.625 3.1875q0.640625 1.046875 1.78125 1.046875q0.78125 0 1.640625 -0.6875q0.859375 -0.703125 1.8125 -2.0625l0 -5.453125q-0.515625 -0.234375 -1.125 -0.359375q-0.609375 -0.125 -1.203125 -0.125q-1.65625 0 -2.59375 1.078125q-0.9375 1.078125 -0.9375 3.375zm16.429688 -6.21875q0.375 0 0.703125 0.15625q0.328125 0.140625 0.5625 0.390625q0.25 0.25 0.390625 0.578125q0.15625 0.328125 0.15625 0.6875q0 0.375 -0.15625 0.703125q-0.140625 0.3125 -0.390625 0.5625q-0.234375 0.25 -0.5625 0.390625q-0.328125 0.140625 -0.703125 0.140625q-0.375 0 -0.703125 -0.140625q-0.3125 -0.140625 -0.5625 -0.390625q-0.234375 -0.25 -0.375 -0.5625q-0.140625 -0.328125 -0.140625 -0.703125q0 -0.359375 0.140625 -0.6875q0.140625 -0.328125 0.375 -0.578125q0.25 -0.25 0.5625 -0.390625q0.328125 -0.15625 0.703125 -0.15625zm0 8.59375q0.375 0 0.703125 0.15625q0.328125 0.140625 0.5625 0.390625q0.25 0.234375 0.390625 0.5625q0.15625 0.328125 0.15625 0.703125q0 0.375 -0.15625 0.703125q-0.140625 0.3125 -0.390625 0.5625q-0.234375 0.234375 -0.5625 0.375q-0.328125 0.15625 -0.703125 0.15625q-0.375 0 -0.703125 -0.15625q-0.3125 -0.140625 -0.5625 -0.375q-0.234375 -0.25 -0.375 -0.5625q-0.140625 -0.328125 -0.140625 -0.703125q0 -0.375 0.140625 -0.703125q0.140625 -0.328125 0.375 -0.5625q0.25 -0.25 0.5625 -0.390625q0.328125 -0.15625 0.703125 -0.15625zm13.1953125 -8.59375q0.375 0 0.703125 0.15625q0.328125 0.140625 0.5625 0.390625q0.25 0.25 0.390625 0.578125q0.15625 0.328125 0.15625 0.6875q0 0.375 -0.15625 0.703125q-0.140625 0.3125 -0.390625 0.5625q-0.234375 0.25 -0.5625 0.390625q-0.328125 0.140625 -0.703125 0.140625q-0.375 0 -0.703125 -0.140625q-0.3125 -0.140625 -0.5625 -0.390625q-0.234375 -0.25 -0.375 -0.5625q-0.140625 -0.328125 -0.140625 -0.703125q0 -0.359375 0.140625 -0.6875q0.140625 -0.328125 0.375 -0.578125q0.25 -0.25 0.5625 -0.390625q0.328125 -0.15625 0.703125 -0.15625zm0 8.59375q0.375 0 0.703125 0.15625q0.328125 0.140625 0.5625 0.390625q0.25 0.234375 0.390625 0.5625q0.15625 0.328125 0.15625 0.703125q0 0.375 -0.15625 0.703125q-0.140625 0.3125 -0.390625 0.5625q-0.234375 0.234375 -0.5625 0.375q-0.328125 0.15625 -0.703125 0.15625q-0.375 0 -0.703125 -0.15625q-0.3125 -0.140625 -0.5625 -0.375q-0.234375 -0.25 -0.375 -0.5625q-0.140625 -0.328125 -0.140625 -0.703125q0 -0.375 0.140625 -0.703125q0.140625 -0.328125 0.375 -0.5625q0.25 -0.25 0.5625 -0.390625q0.328125 -0.15625 0.703125 -0.15625zm8.4765625 -8.375l1.8125 0l0.09375 1.890625q0.515625 -0.609375 0.984375 -1.0q0.484375 -0.40625 0.9375 -0.65625q0.46875 -0.25 0.953125 -0.34375q0.484375 -0.109375 1.0 -0.109375q1.8125 0 2.734375 1.078125q0.9375 1.078125 0.9375 3.234375l0 7.671875l-2.03125 0l0 -7.515625q0 -1.375 -0.515625 -2.03125q-0.515625 -0.671875 -1.53125 -0.671875q-0.375 0 -0.734375 0.109375q-0.359375 0.109375 -0.75 0.390625q-0.390625 0.265625 -0.84375 0.734375q-0.4375 0.46875 -1.0 1.171875l0 7.8125l-2.046875 0l0 -11.765625zm22.648438 11.765625l-1.828125 0l-0.0625 -1.90625q-0.53125 0.609375 -1.015625 1.015625q-0.46875 0.40625 -0.9375 0.65625q-0.46875 0.25 -0.9375 0.34375q-0.46875 0.109375 -1.0 0.109375q-1.8125 0 -2.75 -1.0625q-0.921875 -1.078125 -0.921875 -3.234375l0 -7.6875l2.046875 0l0 7.515625q0 2.71875 2.03125 2.71875q0.375 0 0.734375 -0.109375q0.359375 -0.125 0.75 -0.390625q0.390625 -0.28125 0.84375 -0.75q0.453125 -0.46875 1.015625 -1.1875l0 -7.796875l2.03125 0l0 11.765625zm12.1328125 0l0 -8.453125q0 -0.546875 -0.046875 -0.890625q-0.03125 -0.359375 -0.125 -0.5625q-0.078125 -0.203125 -0.21875 -0.28125q-0.140625 -0.09375 -0.328125 -0.09375q-0.234375 0 -0.4375 0.140625q-0.203125 0.140625 -0.4375 0.46875q-0.21875 0.3125 -0.5 0.828125q-0.265625 0.515625 -0.640625 1.28125l0 7.5625l-1.875 0l0 -8.234375q0 -0.640625 -0.046875 -1.03125q-0.03125 -0.40625 -0.125 -0.625q-0.078125 -0.21875 -0.21875 -0.296875q-0.140625 -0.09375 -0.34375 -0.09375q-0.203125 0 -0.390625 0.125q-0.1875 0.109375 -0.421875 0.421875q-0.234375 0.296875 -0.515625 0.828125q-0.28125 0.53125 -0.65625 1.34375l0 7.5625l-1.875 0l0 -11.765625l1.546875 0l0.09375 2.234375q0.3125 -0.671875 0.59375 -1.140625q0.296875 -0.46875 0.59375 -0.75q0.3125 -0.28125 0.65625 -0.421875q0.34375 -0.140625 0.765625 -0.140625q0.953125 0 1.4375 0.625q0.5 0.625 0.5 1.921875q0.28125 -0.609375 0.546875 -1.078125q0.265625 -0.484375 0.578125 -0.796875q0.3125 -0.328125 0.6875 -0.5q0.375 -0.171875 0.859375 -0.171875q2.21875 0 2.21875 3.421875l0 8.5625l-1.875 0zm14.8671875 -6.09375q0 1.46875 -0.40625 2.625q-0.40625 1.140625 -1.15625 1.953125q-0.734375 0.796875 -1.8125 1.234375q-1.0625 0.421875 -2.390625 0.421875q-1.046875 0 -2.140625 -0.203125q-1.09375 -0.203125 -2.15625 -0.625l0 -15.875l2.046875 0l0 4.5625l-0.09375 2.171875q0.875 -1.171875 1.875 -1.65625q1.0 -0.5 2.15625 -0.5q1.0 0 1.765625 0.421875q0.765625 0.421875 1.28125 1.203125q0.515625 0.765625 0.765625 1.84375q0.265625 1.078125 0.265625 2.421875zm-2.09375 0.09375q0 -0.921875 -0.140625 -1.6875q-0.125 -0.78125 -0.421875 -1.328125q-0.296875 -0.5625 -0.75 -0.875q-0.453125 -0.3125 -1.09375 -0.3125q-0.375 0 -0.78125 0.125q-0.390625 0.125 -0.828125 0.421875q-0.421875 0.28125 -0.90625 0.765625q-0.46875 0.46875 -1.0 1.171875l0 5.703125q0.59375 0.234375 1.203125 0.375q0.625 0.125 1.1875 0.125q0.703125 0 1.34375 -0.21875q0.640625 -0.21875 1.125 -0.734375q0.484375 -0.53125 0.765625 -1.390625q0.296875 -0.859375 0.296875 -2.140625zm15.1640625 -0.5q0 0.421875 -0.015625 0.71875q0 0.296875 -0.03125 0.546875l-8.265625 0q0 1.8125 1.0 2.78125q1.015625 0.96875 2.921875 0.96875q0.515625 0 1.03125 -0.046875q0.515625 -0.046875 0.984375 -0.109375q0.484375 -0.078125 0.921875 -0.15625q0.453125 -0.09375 0.828125 -0.203125l0 1.6875q-0.84375 0.234375 -1.890625 0.375q-1.046875 0.15625 -2.171875 0.15625q-1.515625 0 -2.609375 -0.40625q-1.078125 -0.421875 -1.78125 -1.203125q-0.6875 -0.78125 -1.03125 -1.90625q-0.328125 -1.140625 -0.328125 -2.5625q0 -1.25 0.359375 -2.34375q0.359375 -1.109375 1.03125 -1.953125q0.6875 -0.84375 1.6875 -1.328125q1.0 -0.5 2.265625 -0.5q1.234375 0 2.171875 0.390625q0.953125 0.390625 1.59375 1.109375q0.65625 0.703125 0.984375 1.71875q0.34375 1.0 0.34375 2.265625zm-2.125 -0.296875q0.046875 -0.78125 -0.140625 -1.4375q-0.1875 -0.65625 -0.59375 -1.125q-0.390625 -0.46875 -0.984375 -0.71875q-0.578125 -0.265625 -1.34375 -0.265625q-0.671875 0 -1.21875 0.265625q-0.546875 0.25 -0.953125 0.71875q-0.390625 0.46875 -0.640625 1.125q-0.25 0.65625 -0.3125 1.4375l6.1875 0zm5.8671875 -4.96875l1.859375 0l0.0625 2.171875q1.046875 -1.265625 2.046875 -1.828125q1.015625 -0.5625 2.046875 -0.5625q1.828125 0 2.765625 1.1875q0.953125 1.1875 0.890625 3.515625l-2.0625 0q0.03125 -1.546875 -0.453125 -2.234375q-0.484375 -0.703125 -1.421875 -0.703125q-0.421875 0 -0.84375 0.15625q-0.40625 0.140625 -0.84375 0.46875q-0.4375 0.3125 -0.9375 0.8125q-0.484375 0.5 -1.046875 1.21875l0 7.5625l-2.0625 0l0 -11.765625z" fill-rule="nonzero"></path></g></svg>

