<?xml version="1.0" standalone="yes"?>

<svg version="1.1" viewBox="0.0 0.0 960.0 720.0" fill="none" stroke="none" stroke-linecap="square" stroke-miterlimit="10" xmlns="http://www.w3.org/2000/svg" xmlns:xlink="http://www.w3.org/1999/xlink"><clipPath id="p.0"><path d="m0 0l960.0 0l0 720.0l-960.0 0l0 -720.0z" clip-rule="nonzero"></path></clipPath><g clip-path="url(#p.0)"><path fill="#000000" fill-opacity="0.0" d="m0 0l960.0 0l0 720.0l-960.0 0z" fill-rule="evenodd"></path><path fill="#000000" fill-opacity="0.0" d="m105.54593 96.54593l0 521.1969" fill-rule="evenodd"></path><path stroke="#000000" stroke-width="3.0" stroke-linejoin="round" stroke-linecap="butt" d="m105.54593 96.54593l0 521.1969" fill-rule="evenodd"></path><path fill="#000000" fill-opacity="0.0" d="m107.1811 616.90814l747.81104 0" fill-rule="evenodd"></path><path stroke="#000000" stroke-width="3.0" stroke-linejoin="round" stroke-linecap="butt" d="m107.1811 616.90814l747.81104 0" fill-rule="evenodd"></path><path fill="#999999" d="m177.54855 364.09186l0 0c0 -21.691315 17.58429 -39.275574 39.27559 -39.275574l0 0c10.416534 0 20.406433 4.1379395 27.772034 11.50354c7.365616 7.3656006 11.503555 17.3555 11.503555 27.772034l0 0c0 21.691315 -17.584274 39.275604 -39.27559 39.275604l0 0c-21.6913 0 -39.27559 -17.58429 -39.27559 -39.275604z" fill-rule="evenodd"></path><path fill="#000000" d="m227.62492 378.49185l-3.78125 0l-1.78125 -5.5625l-10.625 0l-1.796875 5.5625l-3.609375 0l8.46875 -25.53125l4.765625 0l8.359375 25.53125zm-6.5625 -8.671875l-4.3125 -13.65625l-4.3125 13.65625l8.625 0z" fill-rule="nonzero"></path><path fill="#000000" fill-opacity="0.0" d="m161.18636 401.2756l111.27559 0l0 49.102356l-111.27559 0z" fill-rule="evenodd"></path><path fill="#000000" d="m186.12883 438.23746q-2.859375 -2.40625 -4.28125 -5.171875q-1.421875 -2.78125 -1.421875 -5.96875q0 -1.78125 0.421875 -3.359375q0.421875 -1.59375 1.1875 -2.984375q0.765625 -1.390625 1.828125 -2.609375q1.0625 -1.234375 2.328125 -2.296875l1.625 1.625q-2.28125 2.046875 -3.4375 4.4375q-1.140625 2.375 -1.140625 5.0q0 2.65625 1.140625 5.109375q1.15625 2.453125 3.4375 4.484375l-1.6875 1.734375zm6.0859375 -4.921875l0 -2.546875l3.90625 0l0 -9.84375l-3.40625 1.875l-0.9375 -2.328125l4.875 -2.5625l2.390625 0l0 12.859375l3.375 0l0 2.546875l-10.203125 0zm13.8828125 2.265625q0.703125 0.015625 1.3125 -0.09375q0.609375 -0.09375 1.0625 -0.328125q0.453125 -0.21875 0.703125 -0.578125q0.265625 -0.34375 0.265625 -0.828125q0 -0.34375 -0.109375 -0.578125q-0.09375 -0.25 -0.25 -0.4375q-0.140625 -0.203125 -0.3125 -0.375q-0.171875 -0.1875 -0.328125 -0.390625q-0.140625 -0.203125 -0.25 -0.46875q-0.09375 -0.265625 -0.09375 -0.640625q0 -0.359375 0.125 -0.703125q0.125 -0.34375 0.375 -0.609375q0.25 -0.28125 0.609375 -0.4375q0.359375 -0.171875 0.8125 -0.171875q0.578125 0 1.03125 0.265625q0.453125 0.265625 0.765625 0.71875q0.328125 0.453125 0.484375 1.03125q0.171875 0.578125 0.171875 1.203125q0 1.09375 -0.40625 2.046875q-0.390625 0.96875 -1.1875 1.6875q-0.796875 0.71875 -2.0 1.125q-1.1875 0.421875 -2.78125 0.421875l0 -1.859375zm25.4375 -2.265625l0 -2.109375l3.625 -3.625q1.015625 -1.015625 1.625 -1.75q0.625 -0.75 0.953125 -1.328125q0.328125 -0.578125 0.4375 -1.0625q0.109375 -0.5 0.109375 -1.03125q0 -0.421875 -0.140625 -0.8125q-0.140625 -0.40625 -0.421875 -0.6875q-0.265625 -0.28125 -0.671875 -0.453125q-0.40625 -0.171875 -0.9375 -0.171875q-0.90625 0 -1.6875 0.390625q-0.765625 0.390625 -1.453125 1.046875l-1.515625 -1.9375q1.0 -0.9375 2.25 -1.484375q1.25 -0.5625 2.703125 -0.5625q1.125 0 2.03125 0.296875q0.921875 0.28125 1.5625 0.84375q0.65625 0.5625 1.015625 1.40625q0.359375 0.84375 0.359375 1.9375q0 0.921875 -0.25 1.71875q-0.25 0.78125 -0.71875 1.53125q-0.46875 0.75 -1.15625 1.5q-0.671875 0.75 -1.5625 1.578125l-2.21875 2.125l6.453125 0l0 2.640625l-10.390625 0zm16.054688 -17.46875q2.875 2.390625 4.28125 5.15625q1.40625 2.765625 1.40625 5.96875q0 1.78125 -0.421875 3.375q-0.421875 1.578125 -1.1875 2.984375q-0.75 1.40625 -1.8125 2.625q-1.046875 1.234375 -2.3125 2.28125l-1.640625 -1.625q2.296875 -2.046875 3.4375 -4.4375q1.15625 -2.40625 1.15625 -5.03125q0 -2.640625 -1.15625 -5.09375q-1.140625 -2.46875 -3.4375 -4.515625l1.6875 -1.6875z" fill-rule="nonzero"></path><path fill="#999999" d="m554.36743 478.27036l0 0c0 -21.691315 17.58429 -39.275604 39.275635 -39.275604l0 0c10.416504 0 20.406433 4.1379395 27.772034 11.50354c7.3656006 7.3656006 11.50354 17.35553 11.50354 27.772064l0 0c0 21.691284 -17.58429 39.275604 -39.275574 39.275604l0 0c-21.691345 0 -39.275635 -17.58432 -39.275635 -39.275604z" fill-rule="evenodd"></path><path fill="#000000" d="m602.4907 485.02972q0 1.84375 -0.71875 3.265625q-0.703125 1.40625 -2.03125 2.390625q-1.3125 0.96875 -3.1875 1.484375q-1.859375 0.5 -4.140625 0.5l-6.671875 0l0 -25.53125l7.296875 0q8.53125 0 8.53125 6.21875q0 2.0625 -0.984375 3.546875q-0.984375 1.484375 -3.203125 2.203125q1.03125 0.203125 1.953125 0.671875q0.9375 0.46875 1.640625 1.21875q0.703125 0.734375 1.109375 1.75q0.40625 1.015625 0.40625 2.28125zm-4.53125 -11.203125q0 -0.78125 -0.234375 -1.46875q-0.234375 -0.703125 -0.828125 -1.203125q-0.578125 -0.5 -1.578125 -0.78125q-0.984375 -0.296875 -2.515625 -0.296875l-3.59375 0l0 7.984375l3.484375 0q1.1875 0 2.15625 -0.25q0.96875 -0.265625 1.65625 -0.78125q0.6875 -0.53125 1.0625 -1.3125q0.390625 -0.796875 0.390625 -1.890625zm0.84375 11.328125q0 -0.984375 -0.421875 -1.765625q-0.40625 -0.78125 -1.1875 -1.3125q-0.78125 -0.546875 -1.90625 -0.828125q-1.109375 -0.296875 -2.515625 -0.296875l-3.5625 0l0 8.78125l3.671875 0q2.984375 0 4.453125 -1.109375q1.46875 -1.109375 1.46875 -3.46875z" fill-rule="nonzero"></path><path fill="#000000" fill-opacity="0.0" d="m538.00525 515.45404l111.27557 0l0 49.102417l-111.27557 0z" fill-rule="evenodd"></path><path fill="#000000" d="m562.94775 552.41595q-2.859375 -2.40625 -4.28125 -5.171875q-1.421875 -2.78125 -1.421875 -5.96875q0 -1.78125 0.421875 -3.359375q0.421875 -1.59375 1.1875 -2.984375q0.765625 -1.390625 1.828125 -2.609375q1.0625 -1.234375 2.328125 -2.296875l1.625 1.625q-2.28125 2.046875 -3.4375 4.4375q-1.140625 2.375 -1.140625 5.0q0 2.65625 1.140625 5.109375q1.15625 2.453125 3.4375 4.484375l-1.6875 1.734375zm14.6796875 -8.046875l0 3.125l-2.796875 0l0 -3.125l-7.125 0l0 -2.4375l5.984375 -9.75l3.9375 0l0 9.671875l2.3125 0l0 2.515625l-2.3125 0zm-2.75 -9.421875l-4.359375 6.90625l4.359375 0l0 -6.90625zm8.0390625 14.8125q0.703125 0.015625 1.3125 -0.09375q0.609375 -0.09375 1.0625 -0.328125q0.453125 -0.21875 0.703125 -0.578125q0.265625 -0.34375 0.265625 -0.828125q0 -0.34375 -0.109375 -0.578125q-0.09375 -0.25 -0.25 -0.4375q-0.140625 -0.203125 -0.3125 -0.375q-0.171875 -0.1875 -0.328125 -0.390625q-0.140625 -0.203125 -0.25 -0.46875q-0.09375 -0.265625 -0.09375 -0.640625q0 -0.359375 0.125 -0.703125q0.125 -0.34375 0.375 -0.609375q0.25 -0.28125 0.609375 -0.4375q0.359375 -0.171875 0.8125 -0.171875q0.578125 0 1.03125 0.265625q0.453125 0.265625 0.765625 0.71875q0.328125 0.453125 0.484375 1.03125q0.171875 0.578125 0.171875 1.203125q0 1.09375 -0.40625 2.046875q-0.390625 0.96875 -1.1875 1.6875q-0.796875 0.71875 -2.0 1.125q-1.1875 0.421875 -2.78125 0.421875l0 -1.859375zm25.703125 -2.265625l0 -2.546875l3.90625 0l0 -9.84375l-3.40625 1.875l-0.9375 -2.328125l4.875 -2.5625l2.390625 0l0 12.859375l3.375 0l0 2.546875l-10.203125 0zm15.7890625 -17.46875q2.875 2.390625 4.28125 5.15625q1.40625 2.765625 1.40625 5.96875q0 1.78125 -0.421875 3.375q-0.421875 1.578125 -1.1875 2.984375q-0.75 1.40625 -1.8125 2.625q-1.046875 1.234375 -2.3125 2.28125l-1.640625 -1.625q2.296875 -2.046875 3.4375 -4.4375q1.15625 -2.40625 1.15625 -5.03125q0 -2.640625 -1.15625 -5.09375q-1.140625 -2.46875 -3.4375 -4.515625l1.6875 -1.6875z" fill-rule="nonzero"></path><path fill="#999999" d="m649.2808 231.63255l0 0c0 -21.691315 17.58429 -39.275604 39.275635 -39.275604l0 0c10.416504 0 20.406433 4.1379547 27.772034 11.503555c7.3656006 7.3656006 11.50354 17.355515 11.50354 27.772049l0 0c0 21.6913 -17.58429 39.27559 -39.275574 39.27559l0 0c-21.691345 0 -39.275635 -17.58429 -39.275635 -39.27559z" fill-rule="evenodd"></path><path fill="#000000" d="m682.4045 239.11255l-1.984375 0l-0.9375 -2.921875l-5.578125 0l-0.9375 2.921875l-1.890625 0l4.4375 -13.40625l2.515625 0l4.375 13.40625zm-3.4375 -4.546875l-2.265625 -7.171875l-2.265625 7.171875l4.53125 0zm14.413818 -0.265625l-4.03125 0l0 4.1875l-1.765625 0l0 -4.1875l-4.03125 0l0 -1.5625l4.03125 0l0 -4.140625l1.765625 0l0 4.140625l4.03125 0l0 1.5625zm11.460632 0.796875q0 0.96875 -0.375 1.71875q-0.375 0.734375 -1.078125 1.25q-0.6875 0.515625 -1.671875 0.78125q-0.96875 0.265625 -2.171875 0.265625l-3.5 0l0 -13.40625l3.828125 0q4.484375 0 4.484375 3.265625q0 1.09375 -0.515625 1.875q-0.515625 0.765625 -1.6875 1.15625q0.546875 0.09375 1.03125 0.34375q0.484375 0.25 0.84375 0.640625q0.375 0.375 0.59375 0.921875q0.21875 0.53125 0.21875 1.1875zm-2.375 -5.875q0 -0.421875 -0.125 -0.78125q-0.125 -0.359375 -0.4375 -0.625q-0.3125 -0.265625 -0.84375 -0.40625q-0.515625 -0.15625 -1.3125 -0.15625l-1.875 0l0 4.1875l1.8125 0q0.625 0 1.125 -0.125q0.515625 -0.140625 0.875 -0.40625q0.375 -0.28125 0.578125 -0.703125q0.203125 -0.421875 0.203125 -0.984375zm0.4375 5.9375q0 -0.5 -0.21875 -0.90625q-0.21875 -0.421875 -0.625 -0.703125q-0.40625 -0.28125 -1.0 -0.4375q-0.59375 -0.15625 -1.328125 -0.15625l-1.859375 0l0 4.625l1.921875 0q1.5625 0 2.328125 -0.578125q0.78125 -0.59375 0.78125 -1.84375z" fill-rule="nonzero"></path><path fill="#000000" fill-opacity="0.0" d="m632.91864 271.45215l111.27557 0l0 49.102386l-111.27557 0z" fill-rule="evenodd"></path><path fill="#000000" d="m657.86115 308.41403q-2.859375 -2.40625 -4.28125 -5.171875q-1.421875 -2.78125 -1.421875 -5.96875q0 -1.78125 0.421875 -3.359375q0.421875 -1.59375 1.1875 -2.984375q0.765625 -1.390625 1.828125 -2.609375q1.0625 -1.234375 2.328125 -2.296875l1.625 1.625q-2.28125 2.046875 -3.4375 4.4375q-1.140625 2.375 -1.140625 5.0q0 2.65625 1.140625 5.109375q1.15625 2.453125 3.4375 4.484375l-1.6875 1.734375zm16.101562 -9.828125q0 1.234375 -0.515625 2.1875q-0.515625 0.953125 -1.4375 1.609375q-0.90625 0.65625 -2.15625 1.0q-1.234375 0.34375 -2.6875 0.34375q-0.375 0 -0.78125 -0.03125q-0.40625 -0.015625 -0.828125 -0.046875q-0.421875 -0.03125 -0.828125 -0.09375q-0.390625 -0.046875 -0.734375 -0.109375l0 -2.5q0.671875 0.171875 1.53125 0.265625q0.875 0.09375 1.78125 0.09375q1.75 0 2.671875 -0.671875q0.921875 -0.671875 0.921875 -1.859375q0 -1.25 -0.859375 -1.84375q-0.859375 -0.609375 -2.765625 -0.609375l-3.0 0l0 -8.140625l8.84375 0l0 2.6875l-6.171875 0l0 3.125l1.109375 0q1.171875 0 2.234375 0.21875q1.0625 0.203125 1.875 0.71875q0.8125 0.515625 1.296875 1.40625q0.5 0.890625 0.5 2.25zm3.8671875 7.171875q0.703125 0.015625 1.3125 -0.09375q0.609375 -0.09375 1.0625 -0.328125q0.453125 -0.21875 0.703125 -0.578125q0.265625 -0.34375 0.265625 -0.828125q0 -0.34375 -0.109375 -0.578125q-0.09375 -0.25 -0.25 -0.4375q-0.140625 -0.203125 -0.3125 -0.375q-0.171875 -0.1875 -0.328125 -0.390625q-0.140625 -0.203125 -0.25 -0.46875q-0.09375 -0.265625 -0.09375 -0.640625q0 -0.359375 0.125 -0.703125q0.125 -0.34375 0.375 -0.609375q0.25 -0.28125 0.609375 -0.4375q0.359375 -0.171875 0.8125 -0.171875q0.578125 0 1.03125 0.265625q0.453125 0.265625 0.765625 0.71875q0.328125 0.453125 0.484375 1.03125q0.171875 0.578125 0.171875 1.203125q0 1.09375 -0.40625 2.046875q-0.390625 0.96875 -1.1875 1.6875q-0.796875 0.71875 -2.0 1.125q-1.1875 0.421875 -2.78125 0.421875l0 -1.859375zm35.875 -6.9375q0 1.125 -0.421875 2.046875q-0.421875 0.90625 -1.296875 1.546875q-0.875 0.625 -2.203125 0.96875q-1.3125 0.34375 -3.109375 0.34375q-0.390625 0 -0.84375 -0.015625q-0.4375 -0.015625 -0.875 -0.046875q-0.421875 -0.03125 -0.84375 -0.078125q-0.40625 -0.03125 -0.734375 -0.09375l0 -2.484375q0.75 0.140625 1.65625 0.234375q0.921875 0.078125 1.921875 0.078125q0.96875 0 1.671875 -0.15625q0.703125 -0.171875 1.15625 -0.484375q0.46875 -0.3125 0.6875 -0.765625q0.21875 -0.453125 0.21875 -1.03125q0 -0.5 -0.234375 -0.90625q-0.21875 -0.421875 -0.671875 -0.703125q-0.453125 -0.28125 -1.171875 -0.4375q-0.703125 -0.171875 -1.671875 -0.171875l-1.703125 0l0 -2.171875l1.5625 0q0.90625 0 1.5 -0.171875q0.609375 -0.1875 0.96875 -0.484375q0.359375 -0.3125 0.515625 -0.734375q0.15625 -0.421875 0.15625 -0.875q0 -0.9375 -0.609375 -1.421875q-0.609375 -0.484375 -1.890625 -0.484375q-0.921875 0 -1.8125 0.171875q-0.890625 0.171875 -1.828125 0.46875l0 -2.40625q0.515625 -0.171875 1.0 -0.28125q0.484375 -0.125 0.953125 -0.203125q0.484375 -0.078125 0.96875 -0.109375q0.5 -0.046875 1.03125 -0.046875q1.265625 0 2.21875 0.28125q0.953125 0.265625 1.609375 0.765625q0.65625 0.484375 0.984375 1.203125q0.328125 0.71875 0.328125 1.59375q0 1.390625 -0.640625 2.265625q-0.640625 0.859375 -1.796875 1.3125q0.75 0.109375 1.34375 0.40625q0.59375 0.28125 1.015625 0.734375q0.4375 0.453125 0.65625 1.046875q0.234375 0.578125 0.234375 1.296875zm5.6171875 -12.796875q2.875 2.390625 4.28125 5.15625q1.40625 2.765625 1.40625 5.96875q0 1.78125 -0.421875 3.375q-0.421875 1.578125 -1.1875 2.984375q-0.75 1.40625 -1.8125 2.625q-1.046875 1.234375 -2.3125 2.28125l-1.640625 -1.625q2.296875 -2.046875 3.4375 -4.4375q1.15625 -2.40625 1.15625 -5.03125q0 -2.640625 -1.15625 -5.09375q-1.140625 -2.46875 -3.4375 -4.515625l1.6875 -1.6875z" fill-rule="nonzero"></path></g></svg>

