<?xml version="1.0" standalone="yes"?>

<svg version="1.1" viewBox="0.0 0.0 960.0 720.0" fill="none" stroke="none" stroke-linecap="square" stroke-miterlimit="10" xmlns="http://www.w3.org/2000/svg" xmlns:xlink="http://www.w3.org/1999/xlink"><clipPath id="p.0"><path d="m0 0l960.0 0l0 720.0l-960.0 0l0 -720.0z" clip-rule="nonzero"></path></clipPath><g clip-path="url(#p.0)"><path fill="#000000" fill-opacity="0.0" d="m0 0l960.0 0l0 720.0l-960.0 0z" fill-rule="evenodd"></path><path fill="#000000" fill-opacity="0.0" d="m105.54593 95.727036l0 522.01575" fill-rule="evenodd"></path><path stroke="#000000" stroke-width="3.0" stroke-linejoin="round" stroke-linecap="butt" d="m105.54593 95.727036l0 522.01575" fill-rule="evenodd"></path><path fill="#000000" fill-opacity="0.0" d="m107.1811 616.90814l747.81104 0" fill-rule="evenodd"></path><path stroke="#000000" stroke-width="3.0" stroke-linejoin="round" stroke-linecap="butt" d="m107.1811 616.90814l747.81104 0" fill-rule="evenodd"></path><path fill="#999999" d="m180.82414 484.26144l0 0c0 -32.59784 27.109695 -59.02362 60.551193 -59.02362l0 0c16.059174 0 31.460602 6.2185364 42.81613 17.287628c11.35556 11.069061 17.735046 26.08197 17.735046 41.735992l0 0c0 32.59787 -27.10968 59.02365 -60.551178 59.02365l0 0c-33.441498 0 -60.551193 -26.425781 -60.551193 -59.02365z" fill-rule="evenodd"></path><path fill="#999999" d="m685.63385 226.7539l0 0c0 -32.59784 27.109741 -59.02362 60.55121 -59.02362l0 0c16.059143 0 31.460571 6.2185364 42.816162 17.287613c11.35553 11.069077 17.735046 26.08197 17.735046 41.736008l0 0c0 32.59784 -27.109741 59.02362 -60.55121 59.02362l0 0c-33.441467 0 -60.55121 -26.425781 -60.55121 -59.02362z" fill-rule="evenodd"></path><path fill="#000000" fill-opacity="0.0" d="m247.66249 495.32373l494.42523 -264.34644" fill-rule="evenodd"></path><path stroke="#000000" stroke-width="8.0" stroke-linejoin="round" stroke-linecap="butt" d="m247.66249 495.32373l452.09546 -241.7147" fill-rule="evenodd"></path><path fill="#000000" stroke="#000000" stroke-width="8.0" stroke-linecap="butt" d="m705.9882 265.26193l25.785828 -28.770416l-38.246338 5.464615z" fill-rule="evenodd"></path><path fill="#000000" fill-opacity="0.0" d="m545.25916 329.62805l229.38586 -117.63779l39.55902 73.07086l-229.3858 117.63782z" fill-rule="evenodd"></path><path fill="#000000" d="m584.0002 354.39886l-2.9207153 -3.0325623l-6.339905 3.2513428l0.89086914 4.073578l-3.392456 1.7397461l-4.3444214 -20.722778l4.782715 -2.4527893l15.105591 15.204071l-3.7816772 1.9393921zm-12.0685425 -12.547211l2.1326294 9.582764l4.754883 -2.438507l-6.887512 -7.1442566zm29.48529 2.719696q-0.9491577 1.1013794 -1.9627075 1.9196777q-0.9996948 0.81118774 -2.2232056 1.4386597q-1.9603271 1.0053406 -3.7808838 1.2190247q-1.8140869 0.19281006 -3.46698 -0.39944458q-1.638977 -0.59936523 -3.081482 -1.9843445q-1.4360962 -1.4058228 -2.6340942 -3.6185913q-1.2277222 -2.2677612 -1.5961914 -4.326477q-0.37591553 -2.0724487 0.053771973 -3.8380737q0.4222412 -1.7793579 1.62323 -3.2030334q1.2074585 -1.4445496 3.1400146 -2.4356384q0.62561035 -0.3208313 1.1827393 -0.57144165q0.5710449 -0.25772095 1.1439819 -0.4461975q0.56555176 -0.20220947 1.1747437 -0.3565979q0.6091919 -0.15438843 1.2973022 -0.26141357l1.8155518 3.3535156q-1.4794312 0.05630493 -2.6764526 0.37167358q-1.1970825 0.31536865 -2.072998 0.7645874q-1.2929688 0.66308594 -1.9576416 1.6009827q-0.6720581 0.9241333 -0.815979 2.0691223q-0.1375122 1.124115 0.20941162 2.4212036q0.33953857 1.2833557 1.0836182 2.6577759q0.7886963 1.4568481 1.6917725 2.46875q0.9095459 0.99102783 1.9389648 1.4815674q1.029419 0.49057007 2.1915894 0.4389038q1.1547241 -0.06539917 2.433838 -0.7213745q0.45880127 -0.23529053 0.9425049 -0.5886841q0.4901123 -0.3742981 0.9579468 -0.78982544q0.4743042 -0.43637085 0.8984375 -0.89974976q0.43066406 -0.4842224 0.77783203 -0.9256897l1.7113647 3.1611328z" fill-rule="nonzero"></path><path fill="#000000" fill-opacity="0.0" d="m247.66249 495.32373l246.07875 -130.86615" fill-rule="evenodd"></path><path stroke="#cc4125" stroke-width="4.0" stroke-linejoin="round" stroke-linecap="butt" d="m247.66249 495.32373l224.88884 -119.59723" fill-rule="evenodd"></path><path fill="#cc4125" stroke="#cc4125" stroke-width="4.0" stroke-linecap="butt" d="m475.65353 381.55984l12.924774 -14.356567l-19.12918 2.6898804z" fill-rule="evenodd"></path><path fill="#000000" fill-opacity="0.0" d="m332.9862 452.174l229.3858 -117.63782l39.559082 73.07086l-229.38583 117.63782z" fill-rule="evenodd"></path><path fill="#cc4125" d="m371.72723 476.94482l-2.9207458 -3.0325928l-6.339905 3.2513428l0.89086914 4.073578l-3.3924255 1.7397461l-4.344452 -20.722778l4.7827454 -2.4527588l15.105591 15.204041l-3.7816772 1.9394226zm-12.0685425 -12.547241l2.1325989 9.582764l4.7549133 -2.438507l-6.887512 -7.1442566zm29.48529 2.719696q-0.94918823 1.1013794 -1.962738 1.9196777q-0.9996948 0.81118774 -2.223175 1.4386597q-1.9603577 1.0053406 -3.7808838 1.2190247q-1.8140869 0.19281006 -3.46698 -0.39944458q-1.638977 -0.59936523 -3.081543 -1.984314q-1.4360657 -1.4058533 -2.6340332 -3.6186218q-1.2277222 -2.2677612 -1.5961914 -4.326477q-0.37591553 -2.0724487 0.053741455 -3.8380737q0.4222412 -1.7793579 1.62323 -3.2030334q1.2074585 -1.4445496 3.1400146 -2.4356384q0.62564087 -0.3208313 1.1827698 -0.57144165q0.5710144 -0.25772095 1.1439819 -0.4461975q0.56552124 -0.20220947 1.1747131 -0.3565979q0.6091919 -0.15438843 1.2973022 -0.26141357l1.8155518 3.3535156q-1.4794312 0.05630493 -2.6764526 0.37167358q-1.197052 0.31539917 -2.0729675 0.7645874q-1.2929993 0.66308594 -1.9576416 1.6009827q-0.6720581 0.9241333 -0.81604004 2.0691223q-0.13748169 1.124115 0.20947266 2.4212036q0.33950806 1.2833557 1.0835876 2.6577759q0.7887268 1.4568481 1.691803 2.46875q0.9095459 0.99102783 1.9389648 1.4815674q1.0293884 0.49057007 2.1915894 0.4389038q1.1547241 -0.06539917 2.433838 -0.7213745q0.45880127 -0.23529053 0.94247437 -0.5886841q0.49014282 -0.3742981 0.9579773 -0.7897949q0.47427368 -0.43640137 0.8984375 -0.89974976q0.43063354 -0.48425293 0.77783203 -0.9257202l1.7113647 3.1611328zm23.626648 -7.445709l-3.2950745 1.6898499l-2.4089966 -27.352112l3.3089905 -1.6969604l2.3950806 27.359222zm27.207886 -17.728607l-1.339325 -2.473938l1.9969177 -6.4501038q0.56225586 -1.8160706 0.8164673 -3.0527039q0.26809692 -1.2437744 0.29278564 -2.1168823q0.031188965 -0.8939514 -0.15621948 -1.5353699q-0.18737793 -0.641449 -0.5221863 -1.2599182q-0.2753296 -0.5085144 -0.6877136 -0.8765259q-0.41983032 -0.38171387 -0.9181824 -0.5475769q-0.5057678 -0.17962646 -1.0965576 -0.12246704q-0.5982361 0.04336548 -1.223877 0.3642273q-1.0705566 0.54904175 -1.735199 1.486908q-0.6720581 0.9241638 -1.0756836 2.114502l-3.0286865 -1.3617249q0.5939636 -1.6918335 1.7179871 -3.0935974q1.1305237 -1.4226379 2.8545227 -2.3067932q1.3347168 -0.68447876 2.605194 -0.8970337q1.263031 -0.22628784 2.3848572 0.041259766q1.1357422 0.260437 2.0885925 1.0361023q0.96673584 0.76852417 1.6661377 2.0604553q0.5803833 1.072052 0.7944031 2.156372q0.20654297 1.0705872 0.12661743 2.2354126q-0.07992554 1.1647949 -0.42401123 2.4651184q-0.33016968 1.2931519 -0.844635 2.8037415l-1.2948608 3.8423767l7.6607056 -3.9286804l1.6741638 3.0923767l-12.332214 6.324463z" fill-rule="nonzero"></path></g></svg>

