<?xml version="1.0" standalone="yes"?>

<svg version="1.1" viewBox="0.0 0.0 960.0 720.0" fill="none" stroke="none" stroke-linecap="square" stroke-miterlimit="10" xmlns="http://www.w3.org/2000/svg" xmlns:xlink="http://www.w3.org/1999/xlink"><clipPath id="p.0"><path d="m0 0l960.0 0l0 720.0l-960.0 0l0 -720.0z" clip-rule="nonzero"></path></clipPath><g clip-path="url(#p.0)"><path fill="#000000" fill-opacity="0.0" d="m0 0l960.0 0l0 720.0l-960.0 0z" fill-rule="evenodd"></path><path fill="#000000" fill-opacity="0.0" d="m105.54593 95.727036l0 522.01575" fill-rule="evenodd"></path><path stroke="#000000" stroke-width="3.0" stroke-linejoin="round" stroke-linecap="butt" d="m105.54593 95.727036l0 522.01575" fill-rule="evenodd"></path><path fill="#000000" fill-opacity="0.0" d="m107.1811 616.90814l747.81104 0" fill-rule="evenodd"></path><path stroke="#000000" stroke-width="3.0" stroke-linejoin="round" stroke-linecap="butt" d="m107.1811 616.90814l747.81104 0" fill-rule="evenodd"></path><path fill="#999999" d="m180.82414 484.26144l0 0c0 -32.59784 27.109695 -59.02362 60.551193 -59.02362l0 0c16.059174 0 31.460602 6.2185364 42.81613 17.287628c11.35556 11.069061 17.735046 26.08197 17.735046 41.735992l0 0c0 32.59787 -27.10968 59.02365 -60.551178 59.02365l0 0c-33.441498 0 -60.551193 -26.425781 -60.551193 -59.02365z" fill-rule="evenodd"></path><path fill="#999999" d="m685.63385 226.7539l0 0c0 -32.59784 27.109741 -59.02362 60.55121 -59.02362l0 0c16.059143 0 31.460571 6.2185364 42.816162 17.287613c11.35553 11.069077 17.735046 26.08197 17.735046 41.736008l0 0c0 32.59784 -27.109741 59.02362 -60.55121 59.02362l0 0c-33.441467 0 -60.55121 -26.425781 -60.55121 -59.02362z" fill-rule="evenodd"></path><path fill="#000000" fill-opacity="0.0" d="m258.36124 364.47757l47.874023 -71.653534l71.08661 45.07086l-47.874023 71.653534z" fill-rule="evenodd"></path><path fill="#000000" d="m304.29474 367.22598l-4.0305786 -1.2238159l-3.958252 5.924347l2.7632446 3.120636l-2.1180115 3.170044l-13.893005 -15.966339l2.9860535 -4.4692383l20.611603 5.910553l-2.3610535 3.5338135zm-16.662415 -5.071228l6.5325623 7.3230286l2.968689 -4.4432373l-9.501251 -2.8797913zm20.177979 -0.19052124l-17.25235 -10.938446l3.6631165 -5.4826355q1.93573 -2.8972168 3.928833 -3.6865234q2.0018005 -0.8023071 4.0874023 0.519989q0.64678955 0.4100952 1.1630249 0.9593506q0.51171875 0.52789307 0.81817627 1.1661072q0.30648804 0.6381836 0.38998413 1.3569946q0.083496094 0.7187805 -0.11743164 1.4976501q0.5309448 -0.5696411 1.2296753 -0.9404297q0.69421387 -0.39215088 1.4822693 -0.50286865q0.7835083 -0.13208008 1.6216431 0.047912598q0.84680176 0.16699219 1.6784058 0.6942444q2.6399841 1.6738281 2.8099976 4.26001q0.15682983 2.5778503 -2.0393066 5.8648376l-3.46344 5.1838074zm-7.2275696 -15.901794q-0.48840332 -0.30963135 -0.9885559 -0.40481567q-0.5001831 -0.09515381 -1.0117493 0.0798645q-0.50286865 0.16204834 -1.0126648 0.6156311q-0.5142822 0.43225098 -1.0264282 1.1987915l-1.2933655 1.935791l4.567169 2.8957214l1.2933655 -1.935791q0.5208435 -0.779541 0.69192505 -1.4293823q0.16659546 -0.6712036 0.062286377 -1.2182007q-0.1088562 -0.5683899 -0.4489441 -0.9874878q-0.33145142 -0.43206787 -0.83303833 -0.7501221zm8.185394 8.814911q0.512146 -0.76651 0.69607544 -1.4637146q0.19262695 -0.71017456 0.10983276 -1.3175354q-0.09597778 -0.61572266 -0.440979 -1.1118774q-0.3363037 -0.5091553 -0.87750244 -0.8522949q-1.1220093 -0.71136475 -2.3111267 -0.2816162q-1.180481 0.41677856 -2.3175964 2.118744l-1.3280945 1.9877625l4.9763794 3.1551514l1.4930115 -2.2346191z" fill-rule="nonzero"></path><path fill="#999999" d="m348.71506 267.87466l0 0c0 -32.597855 27.10971 -59.023636 60.551178 -59.023636l0 0c16.059174 0 31.460602 6.2185516 42.816162 17.287628c11.35556 11.069077 17.735046 26.081955 17.735046 41.736008l0 0c0 32.59784 -27.10971 59.02362 -60.55121 59.02362l0 0c-33.441467 0 -60.551178 -26.425781 -60.551178 -59.02362z" fill-rule="evenodd"></path><path fill="#000000" fill-opacity="0.0" d="m243.87933 487.9444l166.48819 -213.92126" fill-rule="evenodd"></path><path stroke="#000000" stroke-width="3.0" stroke-linejoin="round" stroke-linecap="butt" d="m243.87935 487.9444l155.4329 -199.71631" fill-rule="evenodd"></path><path fill="#000000" stroke="#000000" stroke-width="3.0" stroke-linecap="butt" d="m403.22272 291.2715l4.4512024 -13.787323l-12.272125 7.700531z" fill-rule="evenodd"></path><path fill="#000000" fill-opacity="0.0" d="m414.15344 275.2453l329.19684 -49.165344" fill-rule="evenodd"></path><path stroke="#000000" stroke-width="3.0" stroke-linejoin="round" stroke-linecap="butt" d="m414.15347 275.2453l311.39426 -46.50656" fill-rule="evenodd"></path><path fill="#000000" stroke="#000000" stroke-width="3.0" stroke-linecap="butt" d="m726.2797 233.63959l12.732971 -6.9118195l-14.196899 -2.889862z" fill-rule="evenodd"></path><path fill="#000000" fill-opacity="0.0" d="m247.66249 495.32373l494.42523 -264.34644" fill-rule="evenodd"></path><path stroke="#000000" stroke-width="3.0" stroke-linejoin="round" stroke-linecap="butt" d="m247.66249 495.32373l478.55157 -255.85956" fill-rule="evenodd"></path><path fill="#000000" stroke="#000000" stroke-width="3.0" stroke-linecap="butt" d="m728.5504 243.83401l9.669617 -10.788895l-14.342346 2.0492249z" fill-rule="evenodd"></path><path fill="#000000" fill-opacity="0.0" d="m529.2219 203.05975l87.1181 -9.952744l9.8897705 82.110245l-87.1181 9.952728z" fill-rule="evenodd"></path><path fill="#000000" d="m544.9162 241.24515l-2.4421387 -20.275711l6.5511475 -0.7484436q3.461853 -0.39549255 5.3307495 0.6176758q1.8844604 1.0113983 2.1796875 3.4624786q0.091552734 0.76013184 -0.006958008 1.5105438q-0.08477783 0.7331085 -0.38452148 1.3806915q-0.29968262 0.647583 -0.80249023 1.1768188q-0.5028076 0.52923584 -1.2316895 0.87986755q0.77557373 0.037200928 1.503479 0.33148193q0.74157715 0.2769928 1.3248901 0.80796814q0.5969238 0.51368713 0.9871826 1.271164q0.40576172 0.7557068 0.52349854 1.7330322q0.37365723 3.1026306 -1.5178223 4.9071198q-1.8933716 1.788971 -5.820923 2.237671l-6.194092 0.7076416zm7.725647 -15.822922q-0.06915283 -0.5739746 -0.31152344 -1.0180969q-0.24230957 -0.44410706 -0.7006836 -0.7220001q-0.4428711 -0.2796631 -1.1154175 -0.37582397q-0.65893555 -0.1134491 -1.5748291 -0.008804321l-2.3131104 0.2642517l0.6464844 5.367569l2.3131104 -0.26426697q0.9314575 -0.106399536 1.541748 -0.39630127q0.6239624 -0.30718994 0.980896 -0.74113464q0.37054443 -0.45121765 0.4796753 -0.982666q0.12463379 -0.5332184 0.053649902 -1.1227264zm-1.6432495 11.96698q0.9159546 -0.10462952 1.5709839 -0.4153595q0.6705322 -0.31251526 1.0876465 -0.7690582q0.4152832 -0.47206116 0.5808716 -1.0571442q0.18115234 -0.586853 0.10455322 -1.2228851q-0.15887451 -1.3186188 -1.2420654 -1.9497528q-1.067688 -0.63290405 -3.1013794 -0.40055847l-2.375122 0.27134705l0.70440674 5.848465l2.670105 -0.3050537zm24.885864 -0.48406982q-1.2852173 0.6972656 -2.5264282 1.1064148q-1.225647 0.40737915 -2.5917969 0.56344604q-2.1888428 0.2500763 -3.9575806 -0.19265747q-1.7550659 -0.4600067 -3.0725708 -1.5990753q-1.302002 -1.1408386 -2.133545 -2.948761q-0.8178711 -1.8252106 -1.1187134 -4.32283q-0.30828857 -2.5596771 0.10455322 -4.619858q0.41101074 -2.0756836 1.4574585 -3.5791779q1.0445557 -1.5190125 2.6817627 -2.4294739q1.6508789 -0.92774963 3.8087158 -1.1742706q0.6986084 -0.079818726 1.3077393 -0.11795044q0.6246948 -0.039916992 1.2258301 -0.01423645q0.59924316 0.010177612 1.2214966 0.08062744q0.6222534 0.07044983 1.300415 0.21313477l0.45593262 3.7852173q-1.3942871 -0.46977234 -2.621399 -0.5969391q-1.2271118 -0.12715149 -2.2051392 -0.015426636q-1.4437256 0.16494751 -2.4047852 0.80944824q-0.9628906 0.62898254 -1.5164795 1.6515503q-0.53985596 1.0052795 -0.6934204 2.3438568q-0.15539551 1.3230591 0.031433105 2.8743744q0.19805908 1.6443939 0.66552734 2.912033q0.4810791 1.250351 1.256958 2.0738525q0.77593994 0.8235016 1.8739624 1.1855774q1.0961914 0.34657288 2.524353 0.18341064q0.5123291 -0.058532715 1.0910034 -0.21899414q0.5923462 -0.1777649 1.1791382 -0.4020691q0.60040283 -0.24157715 1.1641235 -0.5261688q0.5774536 -0.30186462 1.0617065 -0.5930786l0.42974854 3.5680237z" fill-rule="nonzero"></path><path fill="#000000" fill-opacity="0.0" d="m410.368 403.91306l228.81888 -118.74014l39.905518 72.8819l-228.81888 118.74014z" fill-rule="evenodd"></path><path fill="#000000" d="m449.22562 428.49838l-2.935089 -3.0186157l-6.324188 3.2817993l0.9102173 4.0693665l-3.3840027 1.7560425l-4.4429626 -20.70221l4.770874 -2.4757385l15.17749 15.131805l-3.7723389 1.95755zm-12.127869 -12.489471l2.1781616 9.572632l4.743164 -2.4613342l-6.9213257 -7.1112976zm17.744751 9.574738l-9.810211 -17.917023l5.8526306 -3.0371094q3.0927734 -1.6048889 5.217682 -1.3345032q2.1387634 0.2632141 3.324707 2.4291687q0.36776733 0.6717224 0.5541382 1.4023743q0.1927185 0.7097473 0.15258789 1.4171143q-0.040130615 0.70736694 -0.3142395 1.3776855q-0.27407837 0.6703491 -0.8260498 1.2560425q0.739624 -0.24298096 1.5299683 -0.23062134q0.7967529 -0.008575439 1.5396423 0.2748413q0.7492676 0.2625122 1.3955688 0.82492065q0.66018677 0.5552063 1.1330566 1.4188232q1.5011902 2.7416992 0.4008484 5.0906677q-1.1078491 2.3352356 -4.6166687 4.1560364l-5.533661 2.871582zm1.3571167 -17.427612q-0.27770996 -0.50720215 -0.6693115 -0.8320923q-0.39160156 -0.32489014 -0.92367554 -0.41845703q-0.518219 -0.10076904 -1.1832886 0.050720215q-0.6586914 0.13058472 -1.4769592 0.5551758l-2.0664368 1.0723572l2.5970154 4.7431335l2.0664673 -1.0723267q0.8321228 -0.43182373 1.2956848 -0.91882324q0.46990967 -0.50790405 0.6428528 -1.0377197q0.17929077 -0.55075073 0.08416748 -1.0822754q-0.08126831 -0.5387573 -0.3665161 -1.0596924zm2.9036255 11.678284q0.8182678 -0.42462158 1.315918 -0.9468994q0.5115051 -0.5295105 0.7324219 -1.1018372q0.21340942 -0.58602905 0.1512146 -1.1875q-0.048309326 -0.6086426 -0.35604858 -1.1706848q-0.6380005 -1.1652222 -1.8858948 -1.3626404q-1.2340088 -0.20458984 -3.0508423 0.7381897l-2.1219177 1.1011353l2.829712 5.168091l2.385437 -1.237854zm31.225555 -20.481415l2.9197998 5.332611l-3.1204834 1.6192932l-2.9197998 -5.332611l-5.1730957 2.6844482l-1.5086975 -2.7554016l5.1730957 -2.6844482l-2.9047852 -5.305176l3.1204834 -1.6193237l2.9047852 5.3052063l5.1730957 -2.6844482l1.5086975 2.7554016l-5.1730957 2.6844482zm26.979004 -6.1841736l-9.810211 -17.916992l5.8526306 -3.0371094q3.0927734 -1.6049194 5.2176514 -1.3345032q2.138794 0.2632141 3.324707 2.4291382q0.36779785 0.6717224 0.5541992 1.4024048q0.19268799 0.7097473 0.15258789 1.4171143q-0.040161133 0.7073364 -0.31427002 1.3776855q-0.2741089 0.6703491 -0.8260498 1.2560425q0.739624 -0.24298096 1.5299683 -0.23065186q0.7967529 -0.008544922 1.5396729 0.27487183q0.7492676 0.2625122 1.3955688 0.82492065q0.66015625 0.5551758 1.1330566 1.4188232q1.5011597 2.7416992 0.40081787 5.090637q-1.1078491 2.3352356 -4.616638 4.156067l-5.5336914 2.8715515zm1.3571167 -17.427582q-0.27770996 -0.50720215 -0.6693115 -0.8320923q-0.39160156 -0.32489014 -0.92370605 -0.41845703q-0.5181885 -0.10076904 -1.1832275 0.050720215q-0.6586914 0.1305542 -1.4769897 0.5551758l-2.0664673 1.0723572l2.597046 4.7431335l2.0664673 -1.0723572q0.8321533 -0.4317932 1.2957153 -0.9187927q0.46984863 -0.50790405 0.64282227 -1.0377197q0.17932129 -0.55075073 0.08416748 -1.0823059q-0.08129883 -0.5387268 -0.3665161 -1.0596619zm2.9036255 11.678284q0.81829834 -0.42462158 1.315918 -0.94692993q0.51153564 -0.52948 0.7324219 -1.1018066q0.21343994 -0.58602905 0.15124512 -1.1875q-0.048339844 -0.6086731 -0.3560791 -1.1707153q-0.6380005 -1.1652222 -1.8858643 -1.3626099q-1.2340088 -0.20462036 -3.0508423 0.7381897l-2.1219482 1.1011047l2.829712 5.1681213l2.385437 -1.237854zm23.108032 -9.350861q-0.94384766 1.105957 -1.9534912 1.9291382q-0.9957886 0.815979 -2.2162476 1.4493103q-1.9555054 1.0147705 -3.7749634 1.2371826q-1.8131104 0.20150757 -3.46875 -0.3828125q-1.6417847 -0.5915222 -3.0908813 -1.969574q-1.442749 -1.3989563 -2.651184 -3.606018q-1.2384644 -2.2619019 -1.6167603 -4.318878q-0.3857422 -2.0706482 0.03552246 -3.838379q0.41375732 -1.7814026 1.6079102 -3.210846q1.2005005 -1.4503479 3.128296 -2.4507446q0.6240845 -0.32385254 1.1799927 -0.5771179q0.5697632 -0.26046753 1.1418457 -0.45169067q0.56451416 -0.20492554 1.1729736 -0.36224365q0.60839844 -0.1572876 1.2960205 -0.26763916l1.8314209 3.3448792q-1.479065 0.06338501 -2.6746216 0.38449097q-1.1954956 0.32113647 -2.0692139 0.77453613q-1.2897949 0.6693115 -1.9499512 1.6103821q-0.6676636 0.9273987 -0.80615234 2.0730896q-0.13214111 1.1247559 0.2210083 2.420227q0.34558105 1.2817383 1.0961914 2.652588q0.79559326 1.4530945 1.7034912 2.4606934q0.9142456 0.9866638 1.9459229 1.47229q1.0317383 0.48562622 2.1936035 0.42837524q1.154419 -0.07092285 2.430359 -0.7330322q0.4576416 -0.23751831 0.93963623 -0.5932312q0.4883423 -0.37664795 0.9541626 -0.7944031q0.47216797 -0.4386902 0.894104 -0.90408325q0.42834473 -0.4862976 0.77337646 -0.92944336l1.7263794 3.152954z" fill-rule="nonzero"></path></g></svg>

