<?xml version="1.0" standalone="yes"?>

<svg version="1.1" viewBox="0.0 0.0 499.83989501312334 315.65616797900265" fill="none" stroke="none" stroke-linecap="square" stroke-miterlimit="10" xmlns="http://www.w3.org/2000/svg" xmlns:xlink="http://www.w3.org/1999/xlink"><clipPath id="p.0"><path d="m0 0l499.8399 0l0 315.65616l-499.8399 0l0 -315.65616z" clip-rule="nonzero"></path></clipPath><g clip-path="url(#p.0)"><path fill="#000000" fill-opacity="0.0" d="m0 0l499.8399 0l0 315.65616l-499.8399 0z" fill-rule="evenodd"></path><path fill="#e7e7e7" d="m140.25722 19.440945l205.70079 0l0 106.897644l-205.70079 0z" fill-rule="evenodd"></path><path stroke="#666666" stroke-width="2.0" stroke-linejoin="round" stroke-linecap="butt" d="m140.25722 19.440945l205.70079 0l0 106.897644l-205.70079 0z" fill-rule="evenodd"></path><path fill="#000000" d="m198.66231 87.289764l-4.40625 0l-6.203125 -10.3125l-6.234375 10.3125l-4.328125 0l8.484375 -13.046875l-7.8125 -12.484379l4.125 0l5.84375 9.609379l5.875 -9.609379l4.0 0l-7.828125 12.328129l8.484375 13.203125zm22.460938 -25.531254l-9.25 16.406254l0 9.125l-3.515625 0l0 -9.203125l-9.234375 -16.328129l4.203125 0l5.078125 9.343754l1.875 3.75l1.71875 -3.40625l5.140625 -9.687504l3.984375 0zm19.835938 7.812504q0 1.5625 -0.59375 3.09375q-0.578125 1.53125 -1.8125 2.75q-1.21875 1.203125 -3.140625 1.96875q-1.90625 0.75 -4.5625 0.75l-3.171875 0l0 9.15625l-3.46875 0l0 -25.531254l7.1875 0q1.890625 0 3.625 0.421875q1.734375 0.421875 3.046875 1.359375q1.328125 0.9375038 2.109375 2.4218788q0.78125 1.484375 0.78125 3.609375zm-3.609375 0.15625q0 -2.453125 -1.609375 -3.765625q-1.609375 -1.3125 -4.5 -1.3125l-3.5625 0l0 10.515625l3.25 0q3.078125 0 4.75 -1.34375q1.671875 -1.359375 1.671875 -4.09375zm21.476547 17.5625l-0.078125 -2.640625q-1.59375 1.578125 -3.2499847 2.296875q-1.640625 0.703125 -3.46875 0.703125q-1.671875 0 -2.875 -0.4375q-1.1875 -0.4375 -1.953125 -1.1875q-0.765625 -0.75 -1.140625 -1.765625q-0.359375 -1.015625 -0.359375 -2.203125q0 -2.953125 2.203125 -4.625q2.203125 -1.671875 6.5 -1.671875l4.0624847 0l0 -1.71875q0 -1.734375 -1.125 -2.78125q-1.109375 -1.046875 -3.3906097 -1.046875q-1.65625 0 -3.28125 0.375q-1.609375 0.375 -3.328125 1.0625l0 -3.078125q0.65625 -0.234375 1.4375 -0.453125q0.796875 -0.21875 1.671875 -0.390625q0.875 -0.1875 1.828125 -0.296875q0.96875 -0.109375 1.9375 -0.109375q1.78125 0 3.2031097 0.390625q1.4375 0.390625 2.421875 1.203125q0.984375 0.796875 1.5 2.015625q0.53125 1.203125 0.53125 2.84375l0 13.515625l-3.046875 0zm-0.359375 -8.921875l-4.3281097 0q-1.265625 0 -2.1875 0.25q-0.90625 0.25 -1.5 0.71875q-0.578125 0.46875 -0.875 1.125q-0.28125 0.65625 -0.28125 1.46875q0 0.578125 0.171875 1.09375q0.1875 0.515625 0.578125 0.921875q0.390625 0.390625 1.015625 0.625q0.625 0.234375 1.515625 0.234375q1.171875 0 2.6875 -0.703125q1.5156097 -0.71875 3.2031097 -2.265625l0 -3.46875zm16.445343 -7.875l-5.8125 0l0 -2.8125l9.25 0l0 16.78125l5.828125 0l0 2.828125l-15.71875 0l0 -2.828125l6.453125 0l0 -13.96875zm1.1875 -11.031254q0.5625 0 1.046875 0.203125q0.5 0.203125 0.859375 0.578125q0.359375 0.359375 0.5625 0.84375q0.203125 0.484375 0.203125 1.046875q0 0.546875 -0.203125 1.03125q-0.203125 0.484375 -0.5625 0.8593788q-0.359375 0.375 -0.859375 0.578125q-0.484375 0.203125 -1.046875 0.203125q-0.5625 0 -1.0625 -0.203125q-0.484375 -0.203125 -0.84375 -0.578125q-0.359375 -0.3750038 -0.5625 -0.8593788q-0.203125 -0.484375 -0.203125 -1.03125q0 -0.5625 0.203125 -1.046875q0.203125 -0.484375 0.5625 -0.84375q0.359375 -0.375 0.84375 -0.578125q0.5 -0.203125 1.0625 -0.203125zm14.9140625 8.218754l3.109375 0l0.09375 3.609375q1.75 -2.09375 3.4375 -3.03125q1.6875 -0.9375 3.40625 -0.9375q3.046875 0 4.609375 1.984375q1.578125 1.96875 1.46875 5.859375l-3.4375 0q0.046875 -2.578125 -0.765625 -3.734375q-0.796875 -1.171875 -2.359375 -1.171875q-0.6875 0 -1.390625 0.25q-0.6875 0.234375 -1.421875 0.78125q-0.734375 0.53125 -1.5625 1.375q-0.8125 0.828125 -1.75 2.03125l0 12.59375l-3.4375 0l0 -19.609375z" fill-rule="nonzero"></path><path fill="#e7e7e7" d="m265.60104 184.44095l205.7008 0l0 106.897644l-205.7008 0z" fill-rule="evenodd"></path><path stroke="#666666" stroke-width="2.0" stroke-linejoin="round" stroke-linecap="butt" d="m265.60104 184.44095l205.7008 0l0 106.897644l-205.7008 0z" fill-rule="evenodd"></path><path fill="#000000" d="m324.39676 226.75851l-8.671875 25.53125l-4.6875 0l-8.484375 -25.53125l3.921875 0l5.515625 17.203125l1.5625 5.046875l1.59375 -5.046875l5.53125 -17.203125l3.71875 0zm19.757812 14.6875q0 0.71875 -0.015625 1.21875q-0.015625 0.484375 -0.0625 0.90625l-13.765625 0q0 3.015625 1.671875 4.625q1.6875 1.609375 4.84375 1.609375q0.859375 0 1.71875 -0.0625q0.859375 -0.078125 1.65625 -0.1875q0.8125 -0.125 1.546875 -0.265625q0.734375 -0.140625 1.359375 -0.328125l0 2.796875q-1.390625 0.390625 -3.140625 0.640625q-1.75 0.25 -3.625 0.25q-2.515625 0 -4.34375 -0.6875q-1.8125 -0.6875 -2.96875 -1.984375q-1.15625 -1.296875 -1.71875 -3.1875q-0.5625 -1.890625 -0.5625 -4.265625q0 -2.078125 0.59375 -3.921875q0.609375 -1.84375 1.75 -3.234375q1.140625 -1.40625 2.796875 -2.21875q1.65625 -0.828125 3.765625 -0.828125q2.0625 0 3.640625 0.65625q1.578125 0.640625 2.65625 1.828125q1.09375 1.171875 1.640625 2.859375q0.5625 1.6875 0.5625 3.78125zm-3.53125 -0.484375q0.0625 -1.3125 -0.25 -2.390625q-0.3125 -1.09375 -0.96875 -1.875q-0.65625 -0.78125 -1.640625 -1.21875q-0.96875 -0.4375 -2.265625 -0.4375q-1.109375 0 -2.03125 0.4375q-0.90625 0.421875 -1.578125 1.203125q-0.65625 0.78125 -1.078125 1.875q-0.40625 1.09375 -0.5 2.40625l10.3125 0zm24.195312 10.609375q-1.328125 0.5 -2.734375 0.75q-1.390625 0.25 -2.875 0.25q-4.640625 0 -7.15625 -2.515625q-2.5 -2.53125 -2.5 -7.375q0 -2.328125 0.71875 -4.21875q0.71875 -1.890625 2.03125 -3.234375q1.3125 -1.359375 3.125 -2.09375q1.8125 -0.734375 4.0 -0.734375q1.53125 0 2.859375 0.21875q1.328125 0.21875 2.53125 0.703125l0 3.25q-1.265625 -0.671875 -2.59375 -0.96875q-1.3125 -0.3125 -2.71875 -0.3125q-1.3125 0 -2.46875 0.5q-1.15625 0.5 -2.046875 1.4375q-0.875 0.9375 -1.390625 2.296875q-0.5 1.34375 -0.5 3.03125q0 3.5625 1.71875 5.328125q1.734375 1.765625 4.8125 1.765625q1.375 0 2.671875 -0.3125q1.3125 -0.3125 2.515625 -0.9375l0 3.171875zm22.554688 0.4375q-1.140625 0.296875 -2.375 0.421875q-1.234375 0.140625 -2.5 0.140625q-3.6875 0 -5.515625 -1.671875q-1.8125 -1.671875 -1.8125 -5.140625l0 -10.234375l-5.484375 0l0 -2.84375l5.484375 0l0 -5.390625l3.40625 -0.875l0 6.265625l8.796875 0l0 2.84375l-8.796875 0l0 9.96875q0 2.109375 1.109375 3.15625q1.125 1.046875 3.3125 1.046875q0.9375 0 2.046875 -0.140625q1.125 -0.15625 2.328125 -0.46875l0 2.921875zm23.273438 -9.6875q0 2.296875 -0.65625 4.203125q-0.640625 1.890625 -1.859375 3.25q-1.203125 1.359375 -2.9375 2.125q-1.734375 0.75 -3.953125 0.75q-2.109375 0 -3.78125 -0.65625q-1.65625 -0.65625 -2.828125 -1.921875q-1.15625 -1.28125 -1.78125 -3.15625q-0.609375 -1.875 -0.609375 -4.3125q0 -2.28125 0.640625 -4.171875q0.65625 -1.890625 1.859375 -3.234375q1.21875 -1.359375 2.953125 -2.109375q1.734375 -0.765625 3.9375 -0.765625q2.109375 0 3.78125 0.65625q1.671875 0.65625 2.828125 1.921875q1.171875 1.25 1.78125 3.125q0.625 1.875 0.625 4.296875zm-3.484375 0.15625q0 -1.8125 -0.40625 -3.171875q-0.390625 -1.359375 -1.140625 -2.265625q-0.734375 -0.90625 -1.796875 -1.359375q-1.0625 -0.46875 -2.375 -0.46875q-1.53125 0 -2.609375 0.609375q-1.078125 0.59375 -1.78125 1.59375q-0.6875 0.984375 -1.015625 2.3125q-0.3125 1.3125 -0.3125 2.75q0 1.828125 0.390625 3.203125q0.40625 1.359375 1.140625 2.265625q0.75 0.90625 1.796875 1.375q1.0625 0.453125 2.390625 0.453125q1.515625 0 2.59375 -0.59375q1.09375 -0.609375 1.78125 -1.59375q0.703125 -1.0 1.015625 -2.3125q0.328125 -1.328125 0.328125 -2.796875zm9.1953125 -9.796875l3.109375 0l0.09375 3.609375q1.75 -2.09375 3.4375 -3.03125q1.6875 -0.9375 3.40625 -0.9375q3.046875 0 4.609375 1.984375q1.578125 1.96875 1.46875 5.859375l-3.4375 0q0.046875 -2.578125 -0.765625 -3.734375q-0.796875 -1.171875 -2.359375 -1.171875q-0.6875 0 -1.390625 0.25q-0.6875 0.234375 -1.421875 0.78125q-0.734375 0.53125 -1.5625 1.375q-0.8125 0.828125 -1.75 2.03125l0 12.59375l-3.4375 0l0 -19.609375z" fill-rule="nonzero"></path><path fill="#e7e7e7" d="m20.270342 184.44095l205.70079 0l0 106.897644l-205.70079 0z" fill-rule="evenodd"></path><path stroke="#666666" stroke-width="2.0" stroke-linejoin="round" stroke-linecap="butt" d="m20.270342 184.44095l205.70079 0l0 106.897644l-205.70079 0z" fill-rule="evenodd"></path><path fill="#000000" d="m87.98402 234.57101q0 1.5625 -0.59375 3.09375q-0.578125 1.53125 -1.8125 2.75q-1.21875 1.203125 -3.140625 1.96875q-1.90625 0.75 -4.5625 0.75l-3.171875 0l0 9.15625l-3.46875 0l0 -25.53125l7.1875 0q1.890625 0 3.625 0.421875q1.734375 0.421875 3.046875 1.359375q1.328125 0.9375 2.109375 2.421875q0.78125 1.484375 0.78125 3.609375zm-3.609375 0.15625q0 -2.453125 -1.609375 -3.765625q-1.609375 -1.3125 -4.5 -1.3125l-3.5625 0l0 10.515625l3.25 0q3.078125 0 4.75 -1.34375q1.671875 -1.359375 1.671875 -4.09375zm25.960938 7.59375q0 2.296875 -0.65625 4.203125q-0.640625 1.890625 -1.859375 3.25q-1.203125 1.359375 -2.9375 2.125q-1.734375 0.75 -3.953125 0.75q-2.109375 0 -3.78125 -0.65625q-1.65625 -0.65625 -2.828125 -1.921875q-1.15625 -1.28125 -1.78125 -3.15625q-0.609375 -1.875 -0.609375 -4.3125q0 -2.28125 0.640625 -4.171875q0.65625 -1.890625 1.859375 -3.234375q1.21875 -1.359375 2.953125 -2.109375q1.734375 -0.765625 3.9375 -0.765625q2.109375 0 3.78125 0.65625q1.671875 0.65625 2.828125 1.921875q1.171875 1.25 1.78125 3.125q0.625 1.875 0.625 4.296875zm-3.484375 0.15625q0 -1.8125 -0.40625 -3.171875q-0.390625 -1.359375 -1.140625 -2.265625q-0.734375 -0.90625 -1.796875 -1.359375q-1.0625 -0.46875 -2.375 -0.46875q-1.53125 0 -2.609375 0.609375q-1.078125 0.59375 -1.78125 1.59375q-0.6875 0.984375 -1.015625 2.3125q-0.3125 1.3125 -0.3125 2.75q0 1.828125 0.390625 3.203125q0.40625 1.359375 1.140625 2.265625q0.75 0.90625 1.796875 1.375q1.0625 0.453125 2.390625 0.453125q1.515625 0 2.59375 -0.59375q1.09375 -0.609375 1.78125 -1.59375q0.703125 -1.0 1.015625 -2.3125q0.328125 -1.328125 0.328125 -2.796875zm15.0859375 -6.984375l-5.8125 0l0 -2.8125l9.25 0l0 16.78125l5.8281326 0l0 2.828125l-15.718758 0l0 -2.828125l6.453125 0l0 -13.96875zm1.1875 -11.03125q0.5625 0 1.046875 0.203125q0.5 0.203125 0.859375 0.578125q0.359375 0.359375 0.5625 0.84375q0.203125 0.484375 0.203125 1.046875q0 0.546875 -0.203125 1.03125q-0.203125 0.484375 -0.5625 0.859375q-0.359375 0.375 -0.859375 0.578125q-0.484375 0.203125 -1.046875 0.203125q-0.5625 0 -1.0625 -0.203125q-0.484375 -0.203125 -0.84375 -0.578125q-0.359375 -0.375 -0.5625 -0.859375q-0.203125 -0.484375 -0.203125 -1.03125q0 -0.5625 0.203125 -1.046875q0.203125 -0.484375 0.5625 -0.84375q0.359375 -0.375 0.84375 -0.578125q0.5 -0.203125 1.0625 -0.203125zm14.117195 8.21875l3.03125 0l0.140625 3.15625q0.859375 -1.015625 1.65625 -1.6875q0.796875 -0.671875 1.5625 -1.078125q0.78125 -0.40625 1.578125 -0.578125q0.796875 -0.171875 1.65625 -0.171875q3.03125 0 4.578125 1.796875q1.5625 1.78125 1.5625 5.375l0 12.796875l-3.40625 0l0 -12.515625q0 -2.3125 -0.859375 -3.40625q-0.859375 -1.109375 -2.546875 -1.109375q-0.625 0 -1.234375 0.1875q-0.59375 0.1875 -1.234375 0.640625q-0.640625 0.453125 -1.390625 1.234375q-0.75 0.78125 -1.6875 1.953125l0 13.015625l-3.40625 0l0 -19.609375zm37.789062 19.328125q-1.140625 0.296875 -2.375 0.421875q-1.234375 0.140625 -2.5 0.140625q-3.6875 0 -5.515625 -1.671875q-1.8125 -1.671875 -1.8125 -5.140625l0 -10.234375l-5.484375 0l0 -2.84375l5.484375 0l0 -5.390625l3.40625 -0.875l0 6.265625l8.796875 0l0 2.84375l-8.796875 0l0 9.96875q0 2.109375 1.109375 3.15625q1.125 1.046875 3.3125 1.046875q0.9375 0 2.046875 -0.140625q1.125 -0.15625 2.328125 -0.46875l0 2.921875z" fill-rule="nonzero"></path><path fill="#000000" fill-opacity="0.0" d="m123.120735 184.44095l119.99999 -58.110237" fill-rule="evenodd"></path><path stroke="#000000" stroke-width="4.0" stroke-linejoin="round" stroke-linecap="butt" d="m123.120735 184.44095l98.39941 -47.650116" fill-rule="evenodd"></path><path stroke="#000000" stroke-width="4.0" stroke-linecap="butt" d="m224.3997 142.73724l13.458038 -13.857925l-19.217163 1.9651184z" fill-rule="evenodd"></path><path fill="#000000" fill-opacity="0.0" d="m368.45145 184.44095l-125.35434 -58.110237" fill-rule="evenodd"></path><path stroke="#000000" stroke-width="4.0" stroke-linejoin="round" stroke-linecap="butt" d="m368.45145 184.44095l-103.58017 -48.016434" fill-rule="evenodd"></path><path stroke="#000000" stroke-width="4.0" stroke-linecap="butt" d="m267.65 130.43033l-19.24759 -1.6402588l13.690186 13.628632z" fill-rule="evenodd"></path></g></svg>

